<svg width="328" height="328" viewBox="0 0 328 328" fill="none" xmlns="http://www.w3.org/2000/svg">
<path d="M289.106 173.027C290.418 155.597 286.364 137.399 280.932 121.203C272.896 97.088 257.204 72.3765 230.833 66.6693C215.627 63.3893 200.152 66.9055 187.111 75.1448C174.575 83.0693 164.807 93.3095 149.384 95.2906C133.791 97.2979 117.791 96.4911 102.119 96.4911C61.8214 96.4911 29.1198 138.823 37.2936 182.919C45.4673 227.015 84.0139 257.592 116.715 257.592C146.104 257.592 170.284 239.965 198.197 235.229C212.039 232.88 225.939 235.661 239.637 232.145C255.558 228.052 270.528 218.297 279.351 204.173C285.36 194.543 288.286 183.936 289.106 173.027Z" fill="#0B4266"/>
<path opacity="0.7" d="M289.106 173.027C290.418 155.597 286.364 137.399 280.932 121.203C272.896 97.088 257.204 72.3765 230.833 66.6693C215.627 63.3893 200.152 66.9055 187.111 75.1448C174.575 83.0693 164.807 93.3095 149.384 95.2906C133.791 97.2979 117.791 96.4911 102.119 96.4911C61.8214 96.4911 29.1198 138.823 37.2936 182.919C45.4673 227.015 84.0139 257.592 116.715 257.592C146.104 257.592 170.284 239.965 198.197 235.229C212.039 232.88 225.939 235.661 239.637 232.145C255.558 228.052 270.528 218.297 279.351 204.173C285.36 194.543 288.286 183.936 289.106 173.027Z" fill="white"/>
<path d="M284.389 166.906C284.389 166.906 284.389 163.626 279.797 159.08C275.205 154.534 272.292 151.897 272.292 151.897C272.292 151.897 270.01 159.402 274.26 163.974C277.381 167.185 280.765 170.13 284.376 172.777L284.389 166.906Z" fill="#0B4266"/>
<path d="M277.763 187.282C277.763 187.282 277.763 184.002 273.171 179.456C268.579 174.91 265.68 172.272 265.68 172.272C265.68 172.272 263.39 179.777 267.648 184.349C270.768 187.561 274.152 190.505 277.763 193.153V187.282Z" fill="#0B4266"/>
<path d="M284.1 172.463C284.1 172.463 284.448 169.222 289.473 165.161C294.498 161.101 297.692 158.818 297.692 158.818C297.692 158.818 299.168 166.519 294.471 170.626C291.029 173.49 287.354 176.062 283.483 178.314L284.1 172.463Z" fill="#0B4266"/>
<path d="M276.097 196.525C276.097 196.525 276.753 193.337 282.204 189.827C287.656 186.318 291.041 184.382 291.041 184.382C291.041 184.382 291.697 192.202 286.6 195.777C282.875 198.265 278.95 200.437 274.864 202.271L276.097 196.525Z" fill="#0B4266"/>
<path d="M277.599 222.765C277.599 222.765 277.599 219.485 282.191 214.932C286.783 210.379 289.689 207.755 289.689 207.755C289.689 207.755 291.979 215.26 287.721 219.826C284.602 223.04 281.218 225.987 277.606 228.636L277.599 222.765Z" fill="#0B4266"/>
<path d="M277.527 229.167C277.527 229.167 277.986 225.94 274.116 220.77C270.245 215.601 267.707 212.597 267.707 212.597C267.707 212.597 264.381 219.701 267.93 224.825C270.561 228.448 273.49 231.845 276.687 234.979L277.527 229.167Z" fill="#0B4266"/>
<path d="M273.021 248.145C273.021 248.145 273.021 244.865 277.613 240.319C282.205 235.773 285.117 233.136 285.117 233.136C285.117 233.136 287.4 240.641 283.149 245.213C280.028 248.426 276.644 251.372 273.034 254.023L273.021 248.145Z" fill="#0B4266"/>
<path d="M276.071 265.352C276.071 265.352 275.244 262.197 278.504 256.621C281.765 251.045 283.949 247.778 283.949 247.778C283.949 247.778 288.056 254.456 285.11 259.953C282.907 263.851 280.381 267.557 277.56 271.033L276.071 265.352Z" fill="#0B4266"/>
<path d="M284.802 166.073C284.573 169.47 284.157 172.851 283.556 176.202C281.745 185.53 277.232 191.552 275.428 199.975C273.624 208.398 278.806 219.255 277.396 230.079C275.986 240.903 271.8 246.919 273.001 254.141C274.201 261.364 280.525 280.926 280.525 280.926" stroke="#263238" stroke-linecap="round" stroke-linejoin="round"/>
<path d="M284.061 174.634L288.981 170.855" stroke="#263238" stroke-linecap="round" stroke-linejoin="round"/>
<path d="M284.291 170.285L282.224 166.618" stroke="#263238" stroke-linecap="round" stroke-linejoin="round"/>
<path d="M275.704 199.588C275.704 199.588 279.823 196.498 284.061 193.409" stroke="#263238" stroke-linecap="round" stroke-linejoin="round"/>
<path d="M277.763 193.153C277.763 193.153 274.326 186.422 270.436 181.961" stroke="#263238" stroke-linecap="round" stroke-linejoin="round"/>
<path d="M277.763 227.409C280.113 223.066 283.083 219.088 286.58 215.601" stroke="#263238" stroke-linecap="round" stroke-linejoin="round"/>
<path d="M276.963 231.988C275.713 229.043 274.219 226.208 272.496 223.513C270.095 219.964 269.747 219.504 269.747 219.504" stroke="#263238" stroke-linecap="round" stroke-linejoin="round"/>
<path d="M273.021 254.141C274.066 251.555 275.308 249.053 276.733 246.656C278.16 244.428 279.768 242.322 281.542 240.358" stroke="#263238" stroke-linecap="round" stroke-linejoin="round"/>
<path d="M277.56 271.033C277.321 268.561 277.747 266.07 278.793 263.817C280.512 260.498 282.454 256.148 283.254 254.43" stroke="#263238" stroke-linecap="round" stroke-linejoin="round"/>
<path d="M247.115 210.498C247.115 210.498 246.761 208.451 249.129 205.086C251.497 201.72 253.065 199.772 253.065 199.772C253.065 199.772 255.308 204.233 253.144 207.552C251.536 209.907 249.734 212.123 247.758 214.178L247.115 210.498Z" fill="#0B4266"/>
<path d="M253.485 222.555C253.485 222.555 253.13 220.508 255.499 217.143C257.867 213.777 259.435 211.829 259.435 211.829C259.435 211.829 261.678 216.29 259.513 219.616C257.904 221.967 256.103 224.181 254.127 226.235L253.485 222.555Z" fill="#0B4266"/>
<path d="M247.896 213.948C247.896 213.948 247.331 211.98 243.737 209.953C240.142 207.926 237.898 206.863 237.898 206.863C237.898 206.863 237.806 211.855 241.178 213.915C243.647 215.336 246.23 216.55 248.899 217.543L247.896 213.948Z" fill="#0B4266"/>
<path d="M255.532 228.17C255.532 228.17 254.758 226.242 250.979 224.628C247.2 223.014 244.839 222.174 244.839 222.174C244.839 222.174 245.272 227.147 248.867 228.839C251.472 229.993 254.168 230.928 256.929 231.634L255.532 228.17Z" fill="#0B4266"/>
<path d="M257.434 244.787C257.434 244.787 257.086 242.74 253.721 240.372C250.356 238.004 248.237 236.685 248.237 236.685C248.237 236.685 247.62 241.638 250.775 244.039C253.08 245.717 255.523 247.199 258.077 248.467L257.434 244.787Z" fill="#0B4266"/>
<path d="M258.182 248.795C258.182 248.795 257.526 246.827 259.409 243.153C261.291 239.48 262.538 237.334 262.538 237.334C262.538 237.334 265.391 241.428 263.725 245.029C262.47 247.586 261.002 250.033 259.336 252.344L258.182 248.795Z" fill="#0B4266"/>
<path d="M263.915 265.293C263.915 265.293 264.151 263.233 267.372 260.701C270.593 258.169 272.62 256.706 272.62 256.706C272.62 256.706 273.519 261.619 270.508 264.198C268.302 266.002 265.95 267.619 263.476 269.032L263.915 265.293Z" fill="#0B4266"/>
<path d="M263.056 260.203C263.056 260.203 262.702 258.156 259.343 255.788C255.984 253.42 253.872 252.101 253.872 252.101C253.872 252.101 253.255 257.054 256.411 259.461C258.717 261.137 261.16 262.618 263.712 263.889L263.056 260.203Z" fill="#0B4266"/>
<path d="M263.056 271.328C263.056 271.328 263.226 269.255 260.576 266.113C257.926 262.971 256.207 261.16 256.207 261.16C256.207 261.16 254.351 265.792 256.798 268.921C258.591 271.124 260.566 273.174 262.702 275.048L263.056 271.328Z" fill="#0B4266"/>
<path d="M246.767 210.012C247.28 212.118 247.909 214.194 248.65 216.231C250.795 221.886 254.278 225.172 256.325 230.256C258.372 235.34 256.325 242.72 258.345 249.353C260.366 255.985 263.712 259.304 263.712 263.962C263.712 268.619 261.901 281.575 261.901 281.575" stroke="#263238" stroke-linecap="round" stroke-linejoin="round"/>
<path d="M248.164 215.299L244.668 213.469" stroke="#263238" stroke-linecap="round" stroke-linejoin="round"/>
<path d="M247.548 212.597L248.44 210.078" stroke="#263238" stroke-linecap="round" stroke-linejoin="round"/>
<path d="M256.109 230.046C256.109 230.046 253.189 228.557 250.205 227.075" stroke="#263238" stroke-linecap="round" stroke-linejoin="round"/>
<path d="M254.121 226.235C254.982 223.532 256.114 220.923 257.499 218.448" stroke="#263238" stroke-linecap="round" stroke-linejoin="round"/>
<path d="M257.841 247.712C255.894 245.249 253.6 243.081 251.031 241.277" stroke="#263238" stroke-linecap="round" stroke-linejoin="round"/>
<path d="M258.838 250.494C259.305 248.515 259.935 246.577 260.721 244.701C261.842 242.215 262.033 241.887 262.033 241.887" stroke="#263238" stroke-linecap="round" stroke-linejoin="round"/>
<path d="M263.554 267.497C264.692 266.088 265.952 264.782 267.32 263.594C268.19 262.954 269.006 262.243 269.76 261.469" stroke="#263238" stroke-linecap="round" stroke-linejoin="round"/>
<path d="M263.712 263.962C262.774 262.45 261.724 261.011 260.569 259.658C259.432 258.417 258.195 257.272 256.87 256.234" stroke="#263238" stroke-linecap="round" stroke-linejoin="round"/>
<path d="M262.702 275.048C262.584 273.47 262.048 271.953 261.147 270.653C259.71 268.757 258.018 266.238 257.329 265.247" stroke="#263238" stroke-linecap="round" stroke-linejoin="round"/>
<path d="M60.7917 181.922L57.9185 173.715L60.7917 177.199L58.5351 164.886L62.025 173.715L63.2583 156.469L65.3116 172.889L67.5682 169.609V173.715L70.2381 168.172L68.8015 177.815L71.2615 176.175L67.3649 181.509L60.7917 181.922Z" fill="#0B4266"/>
<path d="M69.825 179.869H59.1519L61.0739 201.418H67.9029L69.825 179.869Z" fill="#263238" stroke="#263238" stroke-linecap="round" stroke-linejoin="round"/>
<path d="M89.846 201.176H53.4839V278.19H89.846V201.176Z" fill="white" stroke="#263238" stroke-linecap="round" stroke-linejoin="round"/>
<path d="M91.8336 201.176H71.6616V278.19H91.8336V201.176Z" fill="white" stroke="#263238" stroke-linecap="round" stroke-linejoin="round"/>
<path d="M89.5639 201.176H71.6616V278.19H89.5639V201.176Z" fill="#263238" stroke="#263238" stroke-linecap="round" stroke-linejoin="round"/>
<path d="M87.5499 260.281H71.6616V276.051H87.5499V260.281Z" fill="#0B4266" stroke="#263238" stroke-linecap="round" stroke-linejoin="round"/>
<path d="M87.5499 261.134H71.6616V263.155H87.5499V261.134Z" fill="white" stroke="#263238" stroke-linecap="round" stroke-linejoin="round"/>
<path d="M87.5499 272.745H71.6616V274.766H87.5499V272.745Z" fill="white" stroke="#263238" stroke-linecap="round" stroke-linejoin="round"/>
<path d="M74.6729 260.609V280.552" stroke="#263238" stroke-linecap="round" stroke-linejoin="round"/>
<path d="M80.2158 260.609V280.552" stroke="#263238" stroke-linecap="round" stroke-linejoin="round"/>
<path d="M85.0835 260.609V280.552" stroke="#263238" stroke-linecap="round" stroke-linejoin="round"/>
<path d="M87.5499 204.036H71.6616V227.225H87.5499V204.036Z" fill="#0B4266" stroke="#263238" stroke-linecap="round" stroke-linejoin="round"/>
<path d="M87.5499 205.007H71.6616V207.303H87.5499V205.007Z" fill="white" stroke="#263238" stroke-linecap="round" stroke-linejoin="round"/>
<path d="M87.5499 219.872H71.6616V222.168H87.5499V219.872Z" fill="white" stroke="#263238" stroke-linecap="round" stroke-linejoin="round"/>
<path d="M74.6729 204.403V227.068" stroke="#263238" stroke-linecap="round" stroke-linejoin="round"/>
<path d="M80.2158 204.403V227.068" stroke="#263238" stroke-linecap="round" stroke-linejoin="round"/>
<path d="M85.0835 204.403V227.068" stroke="#263238" stroke-linecap="round" stroke-linejoin="round"/>
<path d="M87.5499 231.981H71.6616V255.171H87.5499V231.981Z" fill="#0B4266" stroke="#263238" stroke-linecap="round" stroke-linejoin="round"/>
<path d="M87.5499 232.952H71.6616V235.248H87.5499V232.952Z" fill="white" stroke="#263238" stroke-linecap="round" stroke-linejoin="round"/>
<path d="M87.5499 247.817H71.6616V250.113H87.5499V247.817Z" fill="white" stroke="#263238" stroke-linecap="round" stroke-linejoin="round"/>
<path d="M74.6729 232.355V255.014" stroke="#263238" stroke-linecap="round" stroke-linejoin="round"/>
<path d="M80.2158 232.355V255.014" stroke="#263238" stroke-linecap="round" stroke-linejoin="round"/>
<path d="M85.0835 232.355V255.014" stroke="#263238" stroke-linecap="round" stroke-linejoin="round"/>
<path d="M89.8394 226.904H71.6616V229.541H89.8394V226.904Z" fill="white" stroke="#263238" stroke-linecap="round" stroke-linejoin="round"/>
<path d="M89.8394 255.027H71.6616V257.664H89.8394V255.027Z" fill="white" stroke="#263238" stroke-linecap="round" stroke-linejoin="round"/>
<path d="M89.8394 201.176V278.184" stroke="#263238" stroke-linecap="round" stroke-linejoin="round"/>
<path d="M69.0967 201.176V278.184H71.6616V204.036H89.5245V201.143L69.0967 201.176Z" fill="white" stroke="#263238" stroke-linecap="round" stroke-linejoin="round"/>
<path d="M71.6616 204.036V201.176" stroke="#263238" stroke-linecap="round" stroke-linejoin="round"/>
<path d="M89.7015 165.798C87.7925 162.117 86.9922 159.48 86.9922 158.87C86.9922 157.663 89.6162 156.942 89.6162 156.942C93.7096 154.777 112.963 157.906 121.629 159.349C126.48 160.195 131.387 160.677 136.31 160.792C136.31 160.792 137.511 159.834 138.934 158.627C140.358 157.42 147.115 149.483 149.765 148.787C152.415 148.092 154.816 149.752 154.816 149.752C154.816 149.752 159.152 152.376 158.424 152.881C157.696 153.386 147.115 162.504 144.464 164.19C141.814 165.876 136.284 165.155 131.469 166.119C127.323 166.945 110.529 167.969 106.679 168.284C103.787 168.97 100.752 168.717 98.013 167.562" fill="white"/>
<mask id="mask0_216_8945" style="mask-type:luminance" maskUnits="userSpaceOnUse" x="86" y="148" width="73" height="21">
<path d="M89.7015 165.798C87.7925 162.117 86.9922 159.48 86.9922 158.87C86.9922 157.663 89.6162 156.942 89.6162 156.942C93.7096 154.777 112.963 157.906 121.629 159.349C126.48 160.195 131.387 160.677 136.31 160.792C136.31 160.792 137.511 159.834 138.934 158.627C140.358 157.42 147.115 149.483 149.765 148.787C152.415 148.092 154.816 149.752 154.816 149.752C154.816 149.752 159.152 152.376 158.424 152.881C157.696 153.386 147.115 162.504 144.464 164.19C141.814 165.876 136.284 165.155 131.469 166.119C127.323 166.945 110.529 167.969 106.679 168.284C103.787 168.97 100.752 168.717 98.013 167.562" fill="white"/>
</mask>
<g mask="url(#mask0_216_8945)">
<path d="M154.862 149.725C154.862 149.725 152.454 148.04 149.811 148.761C147.167 149.483 140.423 157.427 138.98 158.601C137.537 159.775 136.356 160.766 136.356 160.766C131.433 160.651 126.526 160.168 121.675 159.323C113.009 157.88 93.7555 154.731 89.6621 156.915C89.6621 156.915 87.0381 157.637 87.0381 158.844C87.1292 159.519 87.3033 160.18 87.5563 160.812L87.9171 160.943C87.9171 160.943 92.7256 160.438 103.104 160.687C113.481 160.936 137.484 162.36 139.026 162.918C139.682 163.167 144.333 162.117 149.489 160.294C153.425 157.086 158.05 153.078 158.516 152.796C159.198 152.369 154.862 149.725 154.862 149.725Z" fill="#0B4266"/>
<path opacity="0.5" d="M154.862 149.725C154.862 149.725 152.454 148.04 149.811 148.761C147.167 149.483 140.423 157.427 138.98 158.601C137.537 159.775 136.356 160.766 136.356 160.766C131.433 160.651 126.526 160.168 121.675 159.323C113.009 157.88 93.7555 154.731 89.6621 156.915C89.6621 156.915 87.0381 157.637 87.0381 158.844C87.1292 159.519 87.3033 160.18 87.5563 160.812L87.9171 160.943C87.9171 160.943 92.7256 160.438 103.104 160.687C113.481 160.936 137.484 162.36 139.026 162.918C139.682 163.167 144.333 162.117 149.489 160.294C153.425 157.086 158.05 153.078 158.516 152.796C159.198 152.369 154.862 149.725 154.862 149.725Z" fill="white"/>
</g>
<path d="M89.7015 165.798C87.7925 162.117 86.9922 159.48 86.9922 158.87C86.9922 157.663 89.6162 156.942 89.6162 156.942C93.7096 154.777 112.963 157.906 121.629 159.349C126.48 160.195 131.387 160.677 136.31 160.792C136.31 160.792 137.511 159.834 138.934 158.627C140.358 157.42 147.115 149.483 149.765 148.787C152.415 148.092 154.816 149.752 154.816 149.752C154.816 149.752 159.152 152.376 158.424 152.881C157.696 153.386 147.115 162.504 144.464 164.19C141.814 165.876 136.284 165.155 131.469 166.119C127.323 166.945 110.529 167.969 106.679 168.284C103.787 168.97 100.752 168.717 98.013 167.562" stroke="#263238" stroke-linecap="round" stroke-linejoin="round"/>
<path d="M184.762 187.196C185.198 186.369 185.851 185.678 186.651 185.196C187.451 184.713 188.368 184.459 189.302 184.46H233.057C233.057 184.46 236.219 184.46 235.274 190.469C234.33 196.478 221.354 233.168 218.218 244.261C215.082 255.354 214.42 278.734 214.42 278.734H161.94C161.94 278.734 166.099 222.823 184.762 187.196Z" fill="white"/>
<mask id="mask1_216_8945" style="mask-type:luminance" maskUnits="userSpaceOnUse" x="161" y="184" width="75" height="95">
<path d="M184.762 187.196C185.198 186.369 185.851 185.678 186.651 185.196C187.451 184.713 188.368 184.459 189.302 184.46H233.057C233.057 184.46 236.219 184.46 235.274 190.469C234.33 196.478 221.354 233.168 218.218 244.261C215.082 255.354 214.42 278.734 214.42 278.734H161.94C161.94 278.734 166.099 222.823 184.762 187.196Z" fill="white"/>
</mask>
<g mask="url(#mask1_216_8945)">
<path opacity="0.16" d="M204.468 184.46H189.302C188.368 184.459 187.451 184.713 186.651 185.196C185.851 185.678 185.198 186.369 184.762 187.196C166.099 222.823 161.894 278.715 161.894 278.715H185.431L191.237 256.666L215.443 261.659C215.614 259.809 215.811 257.926 216.04 256.069L215.509 250.165C215.509 250.165 210.55 244.95 208.988 243.645C207.427 242.339 208.463 239.984 208.201 229.81C207.939 219.635 198.807 212.321 195.409 206.056C192.011 199.791 197.239 195.875 201.936 189.61C203.609 187.347 204.291 185.681 204.468 184.46Z" fill="black"/>
</g>
<path d="M184.762 187.196C185.198 186.369 185.851 185.678 186.651 185.196C187.451 184.713 188.368 184.459 189.302 184.46H233.057C233.057 184.46 236.219 184.46 235.274 190.469C234.33 196.478 221.354 233.168 218.218 244.261C215.082 255.354 214.42 278.734 214.42 278.734H161.94C161.94 278.734 166.099 222.823 184.762 187.196Z" stroke="#263238" stroke-linecap="round" stroke-linejoin="round"/>
<path d="M225.467 194.898C221.045 205.216 211.691 246.066 210.169 278.715H214.394C214.394 278.715 215.05 255.309 218.192 244.242C221.334 233.175 234.323 196.479 235.248 190.45C236.173 184.421 233.031 184.441 233.031 184.441C233.031 184.441 229.016 186.625 225.467 194.898Z" fill="#263238" stroke="#263238" stroke-linecap="round" stroke-linejoin="round"/>
<path d="M148.604 174.273C148.604 174.273 141.624 170.179 138.98 162.963C136.336 155.747 159.677 144.189 169.812 143.467C179.947 142.746 182.808 145.389 188.836 155.741C194.865 166.093 198.945 180.288 195.816 187.268C192.687 194.248 187.393 195.934 191.224 201.7C195.055 207.467 205.905 223.84 205.184 231.542C204.462 239.243 197.003 245.974 186.16 246.708C175.316 247.443 160.884 240.929 148.853 230.308C136.822 219.688 139.944 204.068 144.261 199.017C148.577 193.966 155.092 192.037 155.57 186.986C156.049 181.935 148.604 174.273 148.604 174.273Z" fill="#263238" stroke="#263238" stroke-linecap="round" stroke-linejoin="round"/>
<path d="M178.353 162.852C182.059 169.753 186.697 178.996 188.147 184.579C190.679 194.353 177.651 200.506 181.266 205.21" stroke="white" stroke-linecap="round" stroke-linejoin="round"/>
<path d="M173.302 153.812C173.302 153.812 174.745 156.273 176.739 159.894" stroke="white" stroke-linecap="round" stroke-linejoin="round"/>
<path d="M192.746 171.177C193.173 172.47 193.45 173.808 193.572 175.165" stroke="white" stroke-linecap="round" stroke-linejoin="round"/>
<path d="M175.808 150.224C175.808 150.224 187.209 158.647 191.762 168.73" stroke="white" stroke-linecap="round" stroke-linejoin="round"/>
<path d="M159.985 156.541C151.844 158.824 140.135 162.53 141.086 164.669" stroke="white" stroke-linecap="round" stroke-linejoin="round"/>
<path d="M167.509 154.534C167.509 154.534 165.771 154.967 163.18 155.662" stroke="white" stroke-linecap="round" stroke-linejoin="round"/>
<path d="M157.44 150.283C162.103 148.813 166.987 148.169 171.872 148.38" stroke="white" stroke-linecap="round" stroke-linejoin="round"/>
<path d="M154.121 151.641C154.858 151.257 155.621 150.923 156.403 150.644" stroke="white" stroke-linecap="round" stroke-linejoin="round"/>
<path d="M89.7013 165.797C88.5964 163.774 87.7165 161.636 87.0773 159.421C87.7134 161.637 88.5935 163.776 89.7013 165.797ZM87.0051 159.047C87.0051 159.087 87.0051 159.133 87.0051 159.192C87.0182 159.133 87.0117 159.087 87.0051 159.047ZM89.7013 165.791C92.1547 170.438 95.2071 174.743 98.7803 178.596C107.446 187.983 132.479 212.537 134.86 214.223C137.242 215.909 136.546 220.718 134.86 225.533C133.174 230.348 126.916 237.341 127.159 245.029C127.402 252.717 129.783 264.525 129.566 266.933C129.35 269.341 123.328 277.527 123.328 277.527H185.425C185.425 277.527 177.684 267.687 177.684 264.322C177.684 260.957 188.311 217.838 188.79 214.709C189.269 211.58 187.347 209.415 183.496 209.172C179.645 208.929 164.964 205.8 164.243 203.393C163.521 200.985 168.093 191.841 168.093 191.841L153.661 192.562C153.661 192.562 152.94 198.821 151.975 200.028C151.011 201.235 149.568 198.821 146.196 197.141C142.824 195.462 136.356 194.012 133.922 192.083C131.488 190.155 108.41 168.467 108.41 168.467" fill="white"/>
<mask id="mask2_216_8945" style="mask-type:luminance" maskUnits="userSpaceOnUse" x="87" y="159" width="102" height="119">
<path d="M89.7013 165.797C88.5964 163.774 87.7165 161.636 87.0773 159.421C87.7134 161.637 88.5935 163.776 89.7013 165.797ZM87.0051 159.047C87.0051 159.087 87.0051 159.133 87.0051 159.192C87.0182 159.133 87.0117 159.087 87.0051 159.047ZM89.7013 165.791C92.1547 170.438 95.2071 174.743 98.7803 178.596C107.446 187.983 132.479 212.537 134.86 214.223C137.242 215.909 136.546 220.718 134.86 225.533C133.174 230.348 126.916 237.341 127.159 245.029C127.402 252.717 129.783 264.525 129.566 266.933C129.35 269.341 123.328 277.527 123.328 277.527H185.425C185.425 277.527 177.684 267.687 177.684 264.322C177.684 260.957 188.311 217.838 188.79 214.709C189.269 211.58 187.347 209.415 183.496 209.172C179.645 208.929 164.964 205.8 164.243 203.393C163.521 200.985 168.093 191.841 168.093 191.841L153.661 192.562C153.661 192.562 152.94 198.821 151.975 200.028C151.011 201.235 149.568 198.821 146.196 197.141C142.824 195.462 136.356 194.012 133.922 192.083C131.488 190.155 108.41 168.467 108.41 168.467" fill="white"/>
</mask>
<g mask="url(#mask2_216_8945)">
<path d="M137.609 193.94C138.809 196.039 140.01 197.935 140.01 197.935C140.01 197.935 144.057 200.211 145.068 200.211C146.078 200.211 152.152 203.491 152.152 203.491C152.152 203.491 157.217 202.225 155.432 197.922C154.87 196.82 154.159 195.801 153.32 194.891C153.018 196.8 152.533 199.299 151.962 200.014C150.998 201.215 149.555 198.807 146.183 197.128C143.998 196.039 140.462 195.042 137.609 193.94Z" fill="#0B4266"/>
<path d="M125.25 184.198C117.817 177.317 108.41 168.494 108.41 168.494L102.939 167.707L102.283 168.074C102.283 168.074 117.725 181.738 121.012 183.26C122.342 183.871 123.786 184.191 125.25 184.198Z" fill="#0B4266"/>
<path d="M133.037 191.323L132.446 190.798C132.748 191.296 132.919 191.611 132.919 191.611L133.037 191.323Z" fill="#0B4266"/>
<g opacity="0.5">
<path d="M137.609 193.94C138.809 196.039 140.01 197.935 140.01 197.935C140.01 197.935 144.057 200.211 145.068 200.211C146.078 200.211 152.152 203.491 152.152 203.491C152.152 203.491 157.217 202.225 155.432 197.922C154.87 196.82 154.159 195.801 153.32 194.891C153.018 196.8 152.533 199.299 151.962 200.014C150.998 201.215 149.555 198.807 146.183 197.128C143.998 196.039 140.462 195.042 137.609 193.94Z" fill="white"/>
<path d="M125.25 184.198C117.817 177.317 108.41 168.494 108.41 168.494L102.939 167.707L102.283 168.074C102.283 168.074 117.725 181.738 121.012 183.26C122.342 183.871 123.786 184.191 125.25 184.198Z" fill="white"/>
<path d="M133.037 191.323L132.446 190.798C132.748 191.296 132.919 191.611 132.919 191.611L133.037 191.323Z" fill="white"/>
</g>
</g>
<path d="M86.992 158.87C86.989 158.916 86.989 158.962 86.992 159.008M87.0773 159.421C87.7165 161.636 88.5964 163.774 89.7013 165.797C88.5935 163.776 87.7134 161.637 87.0773 159.421ZM87.0773 159.421C87.0592 159.359 87.046 159.295 87.0379 159.231M89.7013 165.791C92.1547 170.438 95.2071 174.743 98.7803 178.596C107.446 187.983 132.479 212.537 134.86 214.223C137.242 215.909 136.546 220.718 134.86 225.533C133.174 230.348 126.916 237.341 127.159 245.029C127.402 252.717 129.783 264.525 129.566 266.933C129.35 269.341 123.328 277.527 123.328 277.527H185.425C185.425 277.527 177.684 267.687 177.684 264.322C177.684 260.957 188.311 217.838 188.79 214.709C189.269 211.58 187.347 209.415 183.496 209.172C179.645 208.929 164.964 205.8 164.243 203.393C163.521 200.985 168.093 191.841 168.093 191.841L153.661 192.562C153.661 192.562 152.94 198.821 151.975 200.028C151.011 201.235 149.568 198.821 146.196 197.141C142.824 195.462 136.356 194.012 133.922 192.083C131.488 190.155 108.41 168.467 108.41 168.467M87.0051 159.047C87.0051 159.087 87.0051 159.133 87.0051 159.192C87.0182 159.133 87.0117 159.087 87.0051 159.047Z" stroke="#263238" stroke-linecap="round" stroke-linejoin="round"/>
<path d="M108.41 168.494C108.41 168.494 100.722 168.638 96.4316 165.102" stroke="#263238" stroke-linecap="round" stroke-linejoin="round"/>
<path d="M164.249 203.393C163.527 200.992 168.1 191.841 168.1 191.841L153.668 192.562C153.668 192.562 152.946 198.821 151.982 200.028C151.017 201.235 149.574 198.821 146.202 197.141C145.947 197.01 145.665 196.885 145.376 196.761L144.503 210.478C144.503 210.478 145.77 223.762 160.949 221.236C167.096 220.213 173.656 214.729 179.317 208.562C173.492 207.493 164.8 205.236 164.249 203.393Z" fill="white"/>
<mask id="mask3_216_8945" style="mask-type:luminance" maskUnits="userSpaceOnUse" x="144" y="191" width="36" height="31">
<path d="M164.249 203.393C163.527 200.992 168.1 191.841 168.1 191.841L153.668 192.562C153.668 192.562 152.946 198.821 151.982 200.028C151.017 201.235 149.574 198.821 146.202 197.141C145.947 197.01 145.665 196.885 145.376 196.761L144.503 210.478C144.503 210.478 145.77 223.762 160.949 221.236C167.096 220.213 173.656 214.729 179.317 208.562C173.492 207.493 164.8 205.236 164.249 203.393Z" fill="white"/>
</mask>
<g mask="url(#mask3_216_8945)">
<path d="M163.842 193.658C163.842 193.658 162.97 198.552 162.268 203.964C161.566 209.376 161.048 213.404 161.048 213.404L164.249 203.393L167.857 192.786C167.857 192.786 164.367 192.786 163.842 193.658Z" fill="#0B4266"/>
<path opacity="0.5" d="M163.842 193.658C163.842 193.658 162.97 198.552 162.268 203.964C161.566 209.376 161.048 213.404 161.048 213.404L164.249 203.393L167.857 192.786C167.857 192.786 164.367 192.786 163.842 193.658Z" fill="white"/>
</g>
<path d="M164.249 203.393C163.527 200.992 168.1 191.841 168.1 191.841L153.668 192.562C153.668 192.562 152.946 198.821 151.982 200.028C151.017 201.235 149.574 198.821 146.202 197.141C145.947 197.01 145.665 196.885 145.376 196.761L144.503 210.478C144.503 210.478 145.77 223.762 160.949 221.236C167.096 220.213 173.656 214.729 179.317 208.562C173.492 207.493 164.8 205.236 164.249 203.393Z" stroke="#263238" stroke-linecap="round" stroke-linejoin="round"/>
<path d="M151.975 200.027C151.011 201.228 149.568 198.82 146.196 197.141C144.071 196.072 140.686 195.101 137.885 194.051C137.091 192.168 136.041 189.715 135.366 188.232C134.165 185.608 132.236 187.268 132.236 187.268C131.23 186.124 130.417 184.823 129.829 183.417C128.628 180.793 126.7 181.01 124.056 180.531C121.412 180.052 115.869 174.994 115.869 174.994C115.869 174.994 113.278 173.026 112.209 172.049C110.962 174.502 107.978 178.819 101.522 181.515C111.815 192.267 132.696 212.695 134.887 214.23C137.294 215.909 136.573 220.724 134.887 225.539C133.201 230.354 126.942 237.347 127.185 245.035C127.428 252.724 129.809 264.532 129.593 266.939C129.376 269.084 124.574 275.808 123.531 277.252L125.978 277.527H138.718C138.646 271.072 138.652 244.727 143.067 234.231C148.125 222.167 151.975 200.027 151.975 200.027Z" fill="#0B4266"/>
<mask id="mask4_216_8945" style="mask-type:luminance" maskUnits="userSpaceOnUse" x="101" y="172" width="51" height="106">
<path d="M151.975 200.027C151.011 201.228 149.568 198.82 146.196 197.141C144.071 196.072 140.686 195.101 137.885 194.051C137.091 192.168 136.041 189.715 135.366 188.232C134.165 185.608 132.236 187.268 132.236 187.268C131.23 186.124 130.417 184.823 129.829 183.417C128.628 180.793 126.7 181.01 124.056 180.531C121.412 180.052 115.869 174.994 115.869 174.994C115.869 174.994 113.278 173.026 112.209 172.049C110.962 174.502 107.978 178.819 101.522 181.515C111.815 192.267 132.696 212.695 134.887 214.23C137.294 215.909 136.573 220.724 134.887 225.539C133.201 230.354 126.942 237.347 127.185 245.035C127.428 252.724 129.809 264.532 129.593 266.939C129.376 269.084 124.574 275.808 123.531 277.252L125.978 277.527H138.718C138.646 271.072 138.652 244.727 143.067 234.231C148.125 222.167 151.975 200.027 151.975 200.027Z" fill="white"/>
</mask>
<g mask="url(#mask4_216_8945)">
<path opacity="0.16" d="M146.196 197.141C144.071 196.072 140.686 195.101 137.885 194.051C137.091 192.168 136.041 189.715 135.366 188.232C134.165 185.608 132.237 187.268 132.237 187.268C131.23 186.124 130.417 184.823 129.829 183.417C128.629 180.793 126.7 181.01 124.056 180.531C121.413 180.052 115.869 174.994 115.869 174.994C115.869 174.994 113.278 173.026 112.209 172.049C111.675 173.091 111.04 174.077 110.313 174.994C114.616 178.635 119.366 182.492 121.025 183.26C124.305 184.775 125.073 183.509 127.585 185.031C130.098 186.553 132.899 191.591 132.899 191.591C132.899 191.591 134.421 187.537 135.687 190.325C136.953 193.113 139.99 197.915 139.99 197.915C139.99 197.915 144.038 200.191 145.048 200.191C145.842 200.191 149.732 202.212 151.385 203.084C151.753 201.162 151.956 200.008 151.956 200.008C151.011 201.228 149.568 198.82 146.196 197.141Z" fill="black"/>
</g>
<path d="M151.975 200.027C151.011 201.228 149.568 198.82 146.196 197.141C144.071 196.072 140.686 195.101 137.885 194.051C137.091 192.168 136.041 189.715 135.366 188.232C134.165 185.608 132.236 187.268 132.236 187.268C131.23 186.124 130.417 184.823 129.829 183.417C128.628 180.793 126.7 181.01 124.056 180.531C121.412 180.052 115.869 174.994 115.869 174.994C115.869 174.994 113.278 173.026 112.209 172.049C110.962 174.502 107.978 178.819 101.522 181.515C111.815 192.267 132.696 212.695 134.887 214.23C137.294 215.909 136.573 220.724 134.887 225.539C133.201 230.354 126.942 237.347 127.185 245.035C127.428 252.724 129.809 264.532 129.593 266.939C129.376 269.084 124.574 275.808 123.531 277.252L125.978 277.527H138.718C138.646 271.072 138.652 244.727 143.067 234.231C148.125 222.167 151.975 200.027 151.975 200.027Z" stroke="#263238" stroke-linecap="round" stroke-linejoin="round"/>
<path d="M152.146 199.188C152.146 199.188 149.154 198.27 147.311 199.883C145.468 201.497 142.719 209.776 141.099 218.756C140.1 223.984 140.789 229.395 143.067 234.205C143.067 234.205 146.852 224.28 148 219.445C149.148 214.611 152.146 199.188 152.146 199.188Z" fill="#0B4266"/>
<mask id="mask5_216_8945" style="mask-type:luminance" maskUnits="userSpaceOnUse" x="140" y="198" width="13" height="37">
<path d="M152.146 199.188C152.146 199.188 149.154 198.27 147.311 199.883C145.468 201.497 142.719 209.776 141.099 218.756C140.1 223.984 140.789 229.395 143.067 234.205C143.067 234.205 146.852 224.28 148 219.445C149.148 214.611 152.146 199.188 152.146 199.188Z" fill="white"/>
</mask>
<g mask="url(#mask5_216_8945)">
<path opacity="0.16" d="M146.406 200.651C146.406 200.651 148.571 200.126 149.463 200.428C150.214 200.75 150.916 201.176 151.549 201.694L152.146 199.188C151.25 198.73 150.235 198.563 149.24 198.709C147.751 199.011 146.406 200.651 146.406 200.651Z" fill="black"/>
</g>
<path d="M152.146 199.188C152.146 199.188 149.154 198.27 147.311 199.883C145.468 201.497 142.719 209.776 141.099 218.756C140.1 223.984 140.789 229.395 143.067 234.205C143.067 234.205 146.852 224.28 148 219.445C149.148 214.611 152.146 199.188 152.146 199.188Z" stroke="#263238" stroke-linecap="round" stroke-linejoin="round"/>
<path d="M132 199.975L135.851 215.62L127.185 195.881" stroke="#263238" stroke-linecap="round" stroke-linejoin="round"/>
<path d="M157.368 277.527H185.431C185.431 277.527 177.691 267.687 177.691 264.322C177.691 260.957 188.318 217.838 188.797 214.709C189.276 211.579 187.353 209.415 183.503 209.172C179.652 208.929 164.971 205.8 164.249 203.393C164.249 203.393 158.713 222.889 156.79 236.127C155.137 247.482 156.849 271.046 157.368 277.527Z" fill="#0B4266"/>
<mask id="mask6_216_8945" style="mask-type:luminance" maskUnits="userSpaceOnUse" x="156" y="203" width="33" height="75">
<path d="M157.368 277.527H185.431C185.431 277.527 177.691 267.687 177.691 264.322C177.691 260.957 188.318 217.838 188.797 214.709C189.276 211.579 187.353 209.415 183.503 209.172C179.652 208.929 164.971 205.8 164.249 203.393C164.249 203.393 158.713 222.889 156.79 236.127C155.137 247.482 156.849 271.046 157.368 277.527Z" fill="white"/>
</mask>
<g mask="url(#mask6_216_8945)">
<path opacity="0.16" d="M183.503 209.172C180.347 208.975 169.923 206.837 165.863 204.75L167.339 208.162C170.013 209.58 172.889 210.58 175.867 211.127C180.754 211.999 185.3 211.829 188.272 216.198L188.416 216.414C188.6 215.574 188.724 214.984 188.764 214.709C189.282 211.579 187.353 209.415 183.503 209.172Z" fill="black"/>
</g>
<path d="M157.368 277.527H185.431C185.431 277.527 177.691 267.687 177.691 264.322C177.691 260.957 188.318 217.838 188.797 214.709C189.276 211.579 187.353 209.415 183.503 209.172C179.652 208.929 164.971 205.8 164.249 203.393C164.249 203.393 158.713 222.889 156.79 236.127C155.137 247.482 156.849 271.046 157.368 277.527Z" stroke="#263238" stroke-linecap="round" stroke-linejoin="round"/>
<path d="M164.249 203.393C164.249 203.393 156.823 227.009 156.791 236.127C156.791 236.127 167.339 223.355 168.717 214.381C170.094 205.406 164.249 203.393 164.249 203.393Z" fill="#0B4266"/>
<mask id="mask7_216_8945" style="mask-type:luminance" maskUnits="userSpaceOnUse" x="156" y="203" width="13" height="34">
<path d="M164.249 203.393C164.249 203.393 156.823 227.009 156.791 236.127C156.791 236.127 167.339 223.355 168.717 214.381C170.094 205.406 164.249 203.393 164.249 203.393Z" fill="white"/>
</mask>
<g mask="url(#mask7_216_8945)">
<path opacity="0.16" d="M162.97 206.41C164.086 206.373 165.194 206.608 166.199 207.095C167.203 207.581 168.074 208.306 168.736 209.205C168.736 209.205 167.28 204.921 164.249 203.393L162.97 206.41Z" fill="black"/>
</g>
<path d="M164.249 203.393C164.249 203.393 156.823 227.009 156.791 236.127C156.791 236.127 167.339 223.355 168.717 214.381C170.094 205.406 164.249 203.393 164.249 203.393Z" stroke="#263238" stroke-linecap="round" stroke-linejoin="round"/>
<path d="M243.527 273.086C243.527 273.086 248.965 273.309 252.527 273.821C254.903 274.143 257.294 274.333 259.691 274.392C259.691 274.392 257.723 270.416 255.624 269.294C253.524 268.173 249.719 266.165 246.531 266.611C243.343 267.058 238.784 270.272 239.164 271.295C239.545 272.319 241.244 272.778 243.527 273.086Z" fill="white"/>
<mask id="mask8_216_8945" style="mask-type:luminance" maskUnits="userSpaceOnUse" x="239" y="266" width="21" height="9">
<path d="M243.527 273.086C243.527 273.086 248.965 273.309 252.527 273.821C254.903 274.143 257.294 274.333 259.691 274.392C259.691 274.392 257.723 270.416 255.624 269.294C253.524 268.173 249.719 266.165 246.531 266.611C243.343 267.058 238.784 270.272 239.164 271.295C239.545 272.319 241.244 272.778 243.527 273.086Z" fill="white"/>
</mask>
<g mask="url(#mask8_216_8945)">
<path d="M243.527 273.086C243.527 273.086 248.965 273.309 252.527 273.821C254.903 274.143 257.294 274.333 259.691 274.392C259.691 274.392 257.723 270.416 255.624 269.294C253.524 268.173 249.719 266.165 246.531 266.611C243.343 267.058 238.784 270.272 239.164 271.295C239.545 272.319 241.244 272.778 243.527 273.086Z" fill="#0B4266"/>
<path opacity="0.5" d="M243.527 273.086C243.527 273.086 248.965 273.309 252.527 273.821C254.903 274.143 257.294 274.333 259.691 274.392C259.691 274.392 257.723 270.416 255.624 269.294C253.524 268.173 249.719 266.165 246.531 266.611C243.343 267.058 238.784 270.272 239.164 271.295C239.545 272.319 241.244 272.778 243.527 273.086Z" fill="white"/>
</g>
<path d="M243.527 273.086C243.527 273.086 248.965 273.309 252.527 273.821C254.903 274.143 257.294 274.333 259.691 274.392C259.691 274.392 257.723 270.416 255.624 269.294C253.524 268.173 249.719 266.165 246.531 266.611C243.343 267.058 238.784 270.272 239.164 271.295C239.545 272.319 241.244 272.778 243.527 273.086Z" stroke="#263238" stroke-linecap="round" stroke-linejoin="round"/>
<path d="M252.56 271.459C252.56 271.459 256.869 269.222 257.945 269.255C259.021 269.288 266.172 274.123 265.817 274.897C265.577 275.256 265.229 275.53 264.824 275.681C264.419 275.831 263.977 275.851 263.561 275.737C262.767 275.363 257.952 273.316 257.952 273.316L254.803 274.057L252.56 271.459Z" fill="white"/>
<mask id="mask9_216_8945" style="mask-type:luminance" maskUnits="userSpaceOnUse" x="252" y="269" width="14" height="7">
<path d="M252.56 271.459C252.56 271.459 256.869 269.222 257.945 269.255C259.021 269.288 266.172 274.123 265.817 274.897C265.577 275.256 265.229 275.53 264.824 275.681C264.419 275.831 263.977 275.851 263.561 275.737C262.767 275.363 257.952 273.316 257.952 273.316L254.803 274.057L252.56 271.459Z" fill="white"/>
</mask>
<g mask="url(#mask9_216_8945)">
<path d="M252.56 271.459C252.56 271.459 256.869 269.222 257.945 269.255C259.021 269.288 266.172 274.123 265.817 274.897C265.463 275.671 263.771 276.301 263.561 275.737C263.351 275.172 257.952 273.316 257.952 273.316L254.803 274.057L252.56 271.459Z" fill="#0B4266"/>
<path opacity="0.5" d="M252.56 271.459C252.56 271.459 256.869 269.222 257.945 269.255C259.021 269.288 266.172 274.123 265.817 274.897C265.463 275.671 263.771 276.301 263.561 275.737C263.351 275.172 257.952 273.316 257.952 273.316L254.803 274.057L252.56 271.459Z" fill="white"/>
</g>
<path d="M252.56 271.459C252.56 271.459 256.869 269.222 257.945 269.255C259.021 269.288 266.172 274.123 265.817 274.897C265.577 275.256 265.229 275.53 264.824 275.681C264.419 275.831 263.977 275.851 263.561 275.737C262.767 275.363 257.952 273.316 257.952 273.316L254.803 274.057L252.56 271.459Z" stroke="#263238" stroke-linecap="round" stroke-linejoin="round"/>
<path d="M249.483 267.779C249.483 267.779 255.23 267.596 256.371 268.173C257.513 268.75 262.669 277.593 261.895 278.236C261.121 278.879 258.982 278.689 259.048 277.973C259.113 277.258 254.298 272.522 254.298 272.522L250.553 271.702L249.483 267.779Z" fill="white"/>
<mask id="mask10_216_8945" style="mask-type:luminance" maskUnits="userSpaceOnUse" x="249" y="267" width="13" height="12">
<path d="M249.483 267.779C249.483 267.779 255.23 267.596 256.371 268.173C257.513 268.75 262.669 277.593 261.895 278.236C261.121 278.879 258.982 278.689 259.048 277.973C259.113 277.258 254.298 272.522 254.298 272.522L250.553 271.702L249.483 267.779Z" fill="white"/>
</mask>
<g mask="url(#mask10_216_8945)">
<path d="M249.483 267.779C249.483 267.779 255.23 267.596 256.371 268.173C257.513 268.75 262.669 277.593 261.895 278.236C261.121 278.879 258.982 278.689 259.048 277.973C259.113 277.258 254.298 272.522 254.298 272.522L250.553 271.702L249.483 267.779Z" fill="#0B4266"/>
<path opacity="0.5" d="M249.483 267.779C249.483 267.779 255.23 267.596 256.371 268.173C257.513 268.75 262.669 277.593 261.895 278.236C261.121 278.879 258.982 278.689 259.048 277.973C259.113 277.258 254.298 272.522 254.298 272.522L250.553 271.702L249.483 267.779Z" fill="white"/>
</g>
<path d="M249.483 267.779C249.483 267.779 255.23 267.596 256.371 268.173C257.513 268.75 262.669 277.593 261.895 278.236C261.121 278.879 258.982 278.689 259.048 277.973C259.113 277.258 254.298 272.522 254.298 272.522L250.553 271.702L249.483 267.779Z" stroke="#263238" stroke-linecap="round" stroke-linejoin="round"/>
<path d="M246.079 266.592C246.079 266.592 251.897 266.401 253.052 266.992C254.206 267.582 259.428 276.524 258.641 277.18C257.854 277.836 255.702 277.632 255.768 276.911C255.833 276.189 250.959 271.394 250.959 271.394L247.168 270.561L246.079 266.592Z" fill="white"/>
<mask id="mask11_216_8945" style="mask-type:luminance" maskUnits="userSpaceOnUse" x="246" y="266" width="13" height="12">
<path d="M246.079 266.592C246.079 266.592 251.897 266.401 253.052 266.992C254.206 267.582 259.428 276.524 258.641 277.18C257.854 277.836 255.702 277.632 255.768 276.911C255.833 276.189 250.959 271.394 250.959 271.394L247.168 270.561L246.079 266.592Z" fill="white"/>
</mask>
<g mask="url(#mask11_216_8945)">
<path d="M246.079 266.592C246.079 266.592 251.897 266.401 253.052 266.992C254.206 267.582 259.428 276.524 258.641 277.18C257.854 277.836 255.702 277.632 255.768 276.911C255.833 276.189 250.959 271.394 250.959 271.394L247.168 270.561L246.079 266.592Z" fill="#0B4266"/>
<path opacity="0.5" d="M246.079 266.592C246.079 266.592 251.897 266.401 253.052 266.992C254.206 267.582 259.428 276.524 258.641 277.18C257.854 277.836 255.702 277.632 255.768 276.911C255.833 276.189 250.959 271.394 250.959 271.394L247.168 270.561L246.079 266.592Z" fill="white"/>
</g>
<path d="M246.079 266.592C246.079 266.592 251.897 266.401 253.052 266.992C254.206 267.582 259.428 276.524 258.641 277.18C257.854 277.836 255.702 277.632 255.768 276.911C255.833 276.189 250.959 271.394 250.959 271.394L247.168 270.561L246.079 266.592Z" stroke="#263238" stroke-linecap="round" stroke-linejoin="round"/>
<path d="M179.921 233.254C184.132 239.742 192.588 256.181 195.055 258.031C198.906 260.917 224.647 267.924 227.127 269.839C229.606 271.755 229.436 273.677 231.784 274.379C234.133 275.08 242.936 277.094 246.295 277.409C249.654 277.724 248.151 275.645 248.151 275.645L242.425 271.709L247.417 270.475C247.417 270.475 252.422 276.497 253.36 276.825C254.298 277.153 255.951 276.825 255.846 276.084C255.663 274.897 250.323 265.181 248.427 264.768C246.531 264.355 235.025 265.949 235.025 265.949C235.025 265.949 210.891 249.674 210.458 249.096C210.458 249.096 209.015 245.003 207.834 243.317C206.653 241.631 205.905 242.116 205.905 242.116C205.905 242.116 206.391 239.945 205.669 239.224L201.818 235.373L201.68 235.556C201.024 234.244 200.368 232.749 199.647 231.043C197.633 226.3 190.502 212.99 189.302 211.068C188.403 209.631 180.872 208.601 177.054 208.168" fill="#0B4266"/>
<mask id="mask12_216_8945" style="mask-type:luminance" maskUnits="userSpaceOnUse" x="177" y="208" width="79" height="70">
<path d="M179.921 233.254C184.132 239.742 192.588 256.181 195.055 258.031C198.906 260.917 224.647 267.924 227.127 269.839C229.606 271.755 229.436 273.677 231.784 274.379C234.133 275.08 242.936 277.094 246.295 277.409C249.654 277.724 248.151 275.645 248.151 275.645L242.425 271.709L247.417 270.475C247.417 270.475 252.422 276.497 253.36 276.825C254.298 277.153 255.951 276.825 255.846 276.084C255.663 274.897 250.323 265.181 248.427 264.768C246.531 264.355 235.025 265.949 235.025 265.949C235.025 265.949 210.891 249.674 210.458 249.096C210.458 249.096 209.015 245.003 207.834 243.317C206.653 241.631 205.905 242.116 205.905 242.116C205.905 242.116 206.391 239.945 205.669 239.224L201.818 235.373L201.68 235.556C201.024 234.244 200.368 232.749 199.647 231.043C197.633 226.3 190.502 212.99 189.302 211.068C188.403 209.631 180.872 208.601 177.054 208.168" fill="white"/>
</mask>
<g mask="url(#mask12_216_8945)">
<path opacity="0.16" d="M196.688 233.667C199.837 236.462 198.788 236.462 198.086 238.915C197.384 241.369 198.611 238.043 201.582 238.22C204.554 238.397 203.681 242.235 203.327 242.937C202.973 243.639 207.001 244.511 206.299 246.079C205.597 247.647 201.582 249.923 199.312 252.199C197.043 254.476 205.249 248.526 208.044 248.355C208.897 248.296 209.599 248.408 210.189 248.395C209.57 246.639 208.774 244.951 207.814 243.356C206.607 241.671 205.886 242.156 205.886 242.156C205.886 242.156 206.371 239.985 205.649 239.263L201.799 235.412L201.661 235.596C201.005 234.284 200.349 232.788 199.627 231.083C197.613 226.34 190.483 213.03 189.282 211.108C188.383 209.671 180.853 208.641 177.035 208.208L177.382 211.245L177.468 211.311C177.468 211.311 182.184 212.183 183.759 212.36C185.333 212.538 187.255 213.928 187.078 214.984C186.901 216.041 182.361 220.751 183.759 221.105C185.156 221.459 186.73 217.608 188.305 218.133C189.879 218.658 193.52 230.873 196.688 233.667Z" fill="black"/>
</g>
<path d="M179.921 233.254C184.132 239.742 192.588 256.181 195.055 258.031C198.906 260.917 224.647 267.924 227.127 269.839C229.606 271.755 229.436 273.677 231.784 274.379C234.133 275.08 242.936 277.094 246.295 277.409C249.654 277.724 248.151 275.645 248.151 275.645L242.425 271.709L247.417 270.475C247.417 270.475 252.422 276.497 253.36 276.825C254.298 277.153 255.951 276.825 255.846 276.084C255.663 274.897 250.323 265.181 248.427 264.768C246.531 264.355 235.025 265.949 235.025 265.949C235.025 265.949 210.891 249.674 210.458 249.096C210.458 249.096 209.015 245.003 207.834 243.317C206.653 241.631 205.905 242.116 205.905 242.116C205.905 242.116 206.391 239.945 205.669 239.224L201.818 235.373L201.68 235.556C201.024 234.244 200.368 232.749 199.647 231.043C197.633 226.3 190.502 212.99 189.302 211.068C188.403 209.631 180.872 208.601 177.054 208.168" stroke="#263238" stroke-linecap="round" stroke-linejoin="round"/>
<path d="M179.987 224.352C179.809 224.942 179.659 225.533 179.541 226.136" stroke="#263238" stroke-linecap="round" stroke-linejoin="round"/>
<path d="M186.363 213.495C184.301 215.845 182.563 218.459 181.193 221.269" stroke="#263238" stroke-linecap="round" stroke-linejoin="round"/>
<path d="M196 250.743C197.771 248.119 200.592 244.793 203.701 243.842" stroke="#263238" stroke-linecap="round" stroke-linejoin="round"/>
<path d="M194.038 253.971C194.038 253.971 194.353 253.354 194.917 252.422" stroke="#263238" stroke-linecap="round" stroke-linejoin="round"/>
<path d="M194.038 249.824C194.038 249.824 197.259 241.769 200.48 239.696C203.701 237.623 201.858 241.769 201.858 241.769" stroke="#263238" stroke-linecap="round" stroke-linejoin="round"/>
<path d="M227.127 269.845C229.613 271.767 229.436 273.683 231.784 274.385C234.133 275.087 242.936 277.101 246.295 277.416C249.654 277.731 248.152 275.651 248.152 275.651L242.425 271.715L247.417 270.482C247.417 270.482 252.422 276.504 253.36 276.832C254.298 277.16 256.083 277.278 255.846 276.091C255.387 273.795 250.323 265.188 248.427 264.775C246.531 264.361 235.025 265.955 235.025 265.955C235.025 265.955 213.042 250.867 210.635 249.234C201.3 250.133 196.859 255.02 194.989 257.952L195.055 258.005C198.906 260.917 224.647 267.923 227.127 269.845Z" fill="white"/>
<mask id="mask13_216_8945" style="mask-type:luminance" maskUnits="userSpaceOnUse" x="194" y="249" width="62" height="29">
<path d="M227.127 269.845C229.613 271.767 229.436 273.683 231.784 274.385C234.133 275.087 242.936 277.101 246.295 277.416C249.654 277.731 248.152 275.651 248.152 275.651L242.425 271.715L247.417 270.482C247.417 270.482 252.422 276.504 253.36 276.832C254.298 277.16 256.083 277.278 255.846 276.091C255.387 273.795 250.323 265.188 248.427 264.775C246.531 264.361 235.025 265.955 235.025 265.955C235.025 265.955 213.042 250.867 210.635 249.234C201.3 250.133 196.859 255.02 194.989 257.952L195.055 258.005C198.906 260.917 224.647 267.923 227.127 269.845Z" fill="white"/>
</mask>
<g mask="url(#mask13_216_8945)">
<path d="M255.84 276.117C254.646 273.198 250.316 265.214 248.42 264.801C246.525 264.388 235.018 265.982 235.018 265.982C235.018 265.982 213.036 250.894 210.628 249.26C208.178 249.473 205.774 250.055 203.498 250.986C206.968 252.954 230.098 266.074 233.018 266.657C236.114 267.313 246.446 265.614 248.263 266.834C249.418 267.609 252.855 273.06 255.177 276.93C255.84 276.832 256.083 276.707 255.84 276.117Z" fill="#0B4266"/>
<path opacity="0.5" d="M255.84 276.117C253.977 271.938 250.316 265.214 248.42 264.801C246.525 264.388 235.018 265.982 235.018 265.982C235.018 265.982 213.036 250.894 210.628 249.26C208.178 249.473 205.774 250.055 203.498 250.986C206.968 252.954 230.098 266.074 233.018 266.657C236.114 267.313 246.446 265.614 248.263 266.834C249.418 267.609 252.855 273.06 255.177 276.93C255.84 276.832 256.102 276.701 255.84 276.117Z" fill="white"/>
</g>
<path d="M227.127 269.845C229.613 271.767 229.436 273.683 231.784 274.385C234.133 275.087 242.936 277.101 246.295 277.416C249.654 277.731 248.152 275.651 248.152 275.651L242.425 271.715L247.417 270.482C247.417 270.482 252.422 276.504 253.36 276.832C254.298 277.16 256.083 277.278 255.846 276.091C255.387 273.795 250.323 265.188 248.427 264.775C246.531 264.361 235.025 265.955 235.025 265.955C235.025 265.955 213.042 250.867 210.635 249.234C201.3 250.133 196.859 255.02 194.989 257.952L195.055 258.005C198.906 260.917 224.647 267.923 227.127 269.845Z" stroke="#263238" stroke-linecap="round" stroke-linejoin="round"/>
<path d="M169.149 155.295L149.391 163.541C149.151 167.013 148.291 170.415 146.852 173.584C144.517 178.524 145.881 187.872 148.125 192.917C150.368 197.961 160.254 195.987 163.869 195.357C166.32 194.89 168.721 194.19 171.039 193.264C172.094 193.671 173.235 193.802 174.355 193.646C175.475 193.49 176.537 193.052 177.441 192.372C177.441 192.372 166.866 162.688 169.149 155.295Z" fill="white"/>
<mask id="mask14_216_8945" style="mask-type:luminance" maskUnits="userSpaceOnUse" x="145" y="155" width="33" height="42">
<path d="M169.149 155.295L149.391 163.541C149.151 167.013 148.291 170.415 146.852 173.584C144.517 178.524 145.881 187.872 148.125 192.917C150.368 197.961 160.254 195.987 163.869 195.357C166.32 194.89 168.721 194.19 171.039 193.264C172.094 193.671 173.235 193.802 174.355 193.646C175.475 193.49 176.537 193.052 177.441 192.372C177.441 192.372 166.866 162.688 169.149 155.295Z" fill="white"/>
</mask>
<g mask="url(#mask14_216_8945)">
<path d="M169.149 155.295L149.391 163.541C149.151 167.013 148.291 170.415 146.852 173.584C144.517 178.524 145.881 187.872 148.125 192.917C148.5 193.728 149.104 194.412 149.863 194.885V194.504C149.863 194.504 146.196 185.418 146.891 180.177C147.587 174.936 150.565 172.305 150.913 168.992C151.26 165.679 151.083 164.105 157.728 161.658C164.374 159.211 167.162 156.941 167.857 159.382C168.552 161.822 171.354 177.907 173.276 181.751C175.198 185.596 175.021 189.623 172.055 191.362C169.059 193.161 165.847 194.576 162.498 195.573L163.895 195.331C166.346 194.864 168.747 194.163 171.065 193.238C172.12 193.645 173.261 193.776 174.382 193.62C175.502 193.464 176.564 193.025 177.467 192.346C177.467 192.346 166.866 162.688 169.149 155.295Z" fill="#0B4266"/>
<path opacity="0.5" d="M169.149 155.295L149.391 163.541C149.151 167.013 148.291 170.415 146.852 173.584C144.517 178.524 145.881 187.872 148.125 192.917C148.5 193.728 149.104 194.412 149.863 194.885V194.504C149.863 194.504 146.196 185.418 146.891 180.177C147.587 174.936 150.565 172.305 150.913 168.992C151.26 165.679 151.083 164.105 157.728 161.658C164.374 159.211 167.162 156.941 167.857 159.382C168.552 161.822 171.354 177.907 173.276 181.751C175.198 185.596 175.021 189.623 172.055 191.362C169.059 193.161 165.847 194.576 162.498 195.573L163.895 195.331C166.346 194.864 168.747 194.163 171.065 193.238C172.12 193.645 173.261 193.776 174.382 193.62C175.502 193.464 176.564 193.025 177.467 192.346C177.467 192.346 166.866 162.688 169.149 155.295Z" fill="white"/>
</g>
<path d="M169.149 155.295L149.391 163.541C149.151 167.013 148.291 170.415 146.852 173.584C144.517 178.524 145.881 187.872 148.125 192.917C150.368 197.961 160.254 195.987 163.869 195.357C166.32 194.89 168.721 194.19 171.039 193.264C172.094 193.671 173.235 193.802 174.355 193.646C175.475 193.49 176.537 193.052 177.441 192.372C177.441 192.372 166.866 162.688 169.149 155.295Z" stroke="#263238" stroke-linecap="round" stroke-linejoin="round"/>
<path d="M159.165 168.225C159.219 169.386 159.075 170.549 158.739 171.662C158.214 172.974 153.261 178.13 153.412 178.688C153.563 179.245 154.009 181.036 154.888 181.207" stroke="#263238" stroke-linecap="round" stroke-linejoin="round"/>
<path d="M164.656 172.836C165.345 171.459 167.608 172.804 167.575 175.907" stroke="#263238" stroke-linecap="round" stroke-linejoin="round"/>
<path d="M153.438 168.782C153.438 168.782 155.367 167.936 157.092 171.059" stroke="#263238" stroke-linecap="round" stroke-linejoin="round"/>
<path d="M161.914 177.382C164.142 177.494 166.261 178.383 167.903 179.895" stroke="#263238" stroke-width="0.5" stroke-linecap="round" stroke-linejoin="round"/>
<path d="M151.109 173.282C152.262 173.436 153.387 173.747 154.455 174.207" stroke="#263238" stroke-width="0.5" stroke-linecap="round" stroke-linejoin="round"/>
<path d="M158.949 165.312C158.439 165.043 157.874 164.895 157.298 164.882C156.722 164.868 156.151 164.988 155.629 165.233C153.865 166.079 152.782 167.011 152.9 165.929C153.018 164.846 155.091 163.652 155.715 163.495C156.338 163.337 159.126 162.904 158.949 165.312Z" fill="#263238"/>
<path d="M163.895 162.865C165.734 164.353 167.195 166.255 168.159 168.415C169.471 171.695 170.507 168.113 169.471 165.968C168.435 163.823 165.437 161.54 163.895 162.865Z" fill="#263238"/>
<path d="M177.73 197.981C177.73 199.509 176.864 200.749 175.801 200.749C174.739 200.749 173.879 199.509 173.879 197.981C173.879 196.452 174.739 192.562 175.801 192.562C176.864 192.562 177.73 196.452 177.73 197.981Z" fill="#0B4266" stroke="#263238" stroke-linecap="round" stroke-linejoin="round"/>
<path d="M164.826 172.239C164.751 172.44 164.692 172.646 164.649 172.856C164.459 173.827 164.269 175.854 164.649 175.939C165.03 176.024 165.961 174.129 166.125 173.158C166.162 172.967 166.184 172.774 166.191 172.58C165.743 172.44 165.288 172.326 164.826 172.239Z" fill="#263238"/>
<path d="M153.635 168.592C153.577 168.764 153.531 168.939 153.497 169.117C153.3 170.088 153.307 172.22 153.72 172.299C154.133 172.377 154.809 170.383 154.999 169.412C155.047 169.177 155.073 168.937 155.078 168.697C154.609 168.568 154.118 168.532 153.635 168.592Z" fill="#263238"/>
<path d="M164.656 172.869L165.312 171.649C166.352 171.852 167.294 172.397 167.988 173.197" stroke="#263238" stroke-width="0.75" stroke-linecap="round" stroke-linejoin="round"/>
<path d="M153.635 168.592L154.291 167.824C154.291 167.824 154.573 167.687 156.121 168.389" stroke="#263238" stroke-width="0.75" stroke-linecap="round" stroke-linejoin="round"/>
<path d="M151.149 186.383C151.149 186.383 152.251 184.355 153.727 184.355C155.203 184.355 156.305 187.668 156.305 187.668" stroke="#263238" stroke-linecap="round" stroke-linejoin="round"/>
<path d="M103.648 273.801C102.222 273.731 100.821 273.397 99.5152 272.817C99.3332 272.75 99.1668 272.647 99.0261 272.513C98.8854 272.379 98.7735 272.218 98.6969 272.04C98.6204 271.862 98.581 271.67 98.5811 271.476C98.5812 271.281 98.6208 271.089 98.6974 270.911C98.7741 270.733 98.8862 270.572 99.027 270.439C99.1678 270.305 99.3343 270.202 99.5163 270.134C99.6984 270.067 99.8922 270.038 100.086 270.048C100.28 270.058 100.469 270.108 100.644 270.193C101.956 270.751 103.655 271.099 104.107 270.902C104.94 269.97 106.22 264.342 104.566 261.626C104.192 261.023 103.845 260.911 103.615 260.885C102.677 260.754 101.286 261.718 100.794 262.197C100.657 262.326 100.496 262.427 100.32 262.494C100.144 262.561 99.9569 262.593 99.7687 262.587C99.5804 262.582 99.3951 262.539 99.2233 262.462C99.0515 262.385 98.8966 262.275 98.7674 262.138C98.6381 262.001 98.5372 261.84 98.4702 261.664C98.4032 261.488 98.3716 261.3 98.3771 261.112C98.3826 260.924 98.4251 260.738 98.5022 260.567C98.5793 260.395 98.6894 260.24 98.8264 260.111C99.0822 259.861 101.45 257.729 103.976 258.071C104.602 258.162 105.199 258.397 105.72 258.756C106.241 259.116 106.673 259.59 106.98 260.144C109.414 264.112 107.748 271.663 105.878 273.159C105.229 273.618 104.443 273.845 103.648 273.801Z" fill="white"/>
<mask id="mask15_216_8945" style="mask-type:luminance" maskUnits="userSpaceOnUse" x="98" y="258" width="11" height="16">
<path d="M103.648 273.801C102.222 273.731 100.821 273.397 99.5152 272.817C99.3332 272.75 99.1668 272.647 99.0261 272.513C98.8854 272.379 98.7735 272.218 98.6969 272.04C98.6204 271.862 98.581 271.67 98.5811 271.476C98.5812 271.281 98.6208 271.089 98.6974 270.911C98.7741 270.733 98.8862 270.572 99.027 270.439C99.1678 270.305 99.3343 270.202 99.5163 270.134C99.6984 270.067 99.8922 270.038 100.086 270.048C100.28 270.058 100.469 270.108 100.644 270.193C101.956 270.751 103.655 271.099 104.107 270.902C104.94 269.97 106.22 264.342 104.566 261.626C104.192 261.023 103.845 260.911 103.615 260.885C102.677 260.754 101.286 261.718 100.794 262.197C100.657 262.326 100.496 262.427 100.32 262.494C100.144 262.561 99.9569 262.593 99.7687 262.587C99.5804 262.582 99.3951 262.539 99.2233 262.462C99.0515 262.385 98.8966 262.275 98.7674 262.138C98.6381 262.001 98.5372 261.84 98.4702 261.664C98.4032 261.488 98.3716 261.3 98.3771 261.112C98.3826 260.924 98.4251 260.738 98.5022 260.567C98.5793 260.395 98.6894 260.24 98.8264 260.111C99.0822 259.861 101.45 257.729 103.976 258.071C104.602 258.162 105.199 258.397 105.72 258.756C106.241 259.116 106.673 259.59 106.98 260.144C109.414 264.112 107.748 271.663 105.878 273.159C105.229 273.618 104.443 273.845 103.648 273.801Z" fill="white"/>
</mask>
<g mask="url(#mask15_216_8945)">
<path d="M105.57 261.193C105.398 260.785 105.128 260.426 104.785 260.147C104.442 259.868 104.036 259.678 103.602 259.592C101.962 259.33 100.42 260.976 100.25 261.16C100.093 261.349 99.9961 261.58 99.9715 261.825C99.947 262.069 99.9959 262.315 100.112 262.531C100.37 262.479 100.609 262.357 100.801 262.177C101.293 261.718 102.683 260.753 103.622 260.865C103.851 260.865 104.199 261.003 104.573 261.606C106.226 264.296 104.947 269.95 104.114 270.882C103.661 271.079 101.968 270.731 100.65 270.174C100.488 270.105 100.314 270.067 100.138 270.062C100.15 270.242 100.207 270.416 100.303 270.568C100.399 270.72 100.532 270.846 100.689 270.934C101.519 271.377 102.434 271.637 103.372 271.695C103.908 271.721 104.432 271.538 104.835 271.184C106.068 270.049 107.157 264.243 105.57 261.193Z" fill="#0B4266"/>
<path opacity="0.5" d="M105.57 261.193C105.398 260.785 105.128 260.426 104.785 260.147C104.442 259.868 104.036 259.678 103.602 259.592C101.962 259.33 100.42 260.976 100.25 261.16C100.093 261.349 99.9961 261.58 99.9715 261.825C99.947 262.069 99.9959 262.315 100.112 262.531C100.37 262.479 100.609 262.357 100.801 262.177C101.293 261.718 102.683 260.753 103.622 260.865C103.851 260.865 104.199 261.003 104.573 261.606C106.226 264.296 104.947 269.95 104.114 270.882C103.661 271.079 101.968 270.731 100.65 270.174C100.488 270.105 100.314 270.067 100.138 270.062C100.15 270.242 100.207 270.416 100.303 270.568C100.399 270.72 100.532 270.846 100.689 270.934C101.519 271.377 102.434 271.637 103.372 271.695C103.908 271.721 104.432 271.538 104.835 271.184C106.068 270.049 107.157 264.243 105.57 261.193Z" fill="white"/>
</g>
<path d="M103.648 273.801C102.222 273.731 100.821 273.397 99.5152 272.817C99.3332 272.75 99.1668 272.647 99.0261 272.513C98.8854 272.379 98.7735 272.218 98.6969 272.04C98.6204 271.862 98.581 271.67 98.5811 271.476C98.5812 271.281 98.6208 271.089 98.6974 270.911C98.7741 270.733 98.8862 270.572 99.027 270.439C99.1678 270.305 99.3343 270.202 99.5163 270.134C99.6984 270.067 99.8922 270.038 100.086 270.048C100.28 270.058 100.469 270.108 100.644 270.193C101.956 270.751 103.655 271.099 104.107 270.902C104.94 269.97 106.22 264.342 104.566 261.626C104.192 261.023 103.845 260.911 103.615 260.885C102.677 260.754 101.286 261.718 100.794 262.197C100.657 262.326 100.496 262.427 100.32 262.494C100.144 262.561 99.9569 262.593 99.7687 262.587C99.5804 262.582 99.3951 262.539 99.2233 262.462C99.0515 262.385 98.8966 262.275 98.7674 262.138C98.6381 262.001 98.5372 261.84 98.4702 261.664C98.4032 261.488 98.3716 261.3 98.3771 261.112C98.3826 260.924 98.4251 260.738 98.5022 260.567C98.5793 260.395 98.6894 260.24 98.8264 260.111C99.0822 259.861 101.45 257.729 103.976 258.071C104.602 258.162 105.199 258.397 105.72 258.756C106.241 259.116 106.673 259.59 106.98 260.144C109.414 264.112 107.748 271.663 105.878 273.159C105.229 273.618 104.443 273.845 103.648 273.801Z" stroke="#263238" stroke-linecap="round" stroke-linejoin="round"/>
<path d="M101.142 256.876H85.3652V277.816H101.142V256.876Z" fill="white"/>
<mask id="mask16_216_8945" style="mask-type:luminance" maskUnits="userSpaceOnUse" x="85" y="256" width="17" height="22">
<path d="M101.142 256.876H85.3652V277.816H101.142V256.876Z" fill="white"/>
</mask>
<g mask="url(#mask16_216_8945)">
<path d="M91.8268 256.876H85.3652V277.816H91.8268V256.876Z" fill="#0B4266"/>
<path opacity="0.5" d="M91.8268 256.876H85.3652V277.816H91.8268V256.876Z" fill="white"/>
</g>
<path d="M101.142 256.876H85.3652V277.816H101.142V256.876Z" stroke="#263238" stroke-linecap="round" stroke-linejoin="round"/>
<path d="M187.839 277.527H120.442L118.244 240.476C118.183 240.117 118.201 239.749 118.297 239.397C118.392 239.046 118.563 238.719 118.796 238.44C119.03 238.16 119.322 237.935 119.651 237.779C119.981 237.623 120.34 237.541 120.704 237.538H187.551C187.917 237.537 188.279 237.617 188.612 237.771C188.945 237.925 189.239 238.15 189.476 238.43C189.713 238.71 189.886 239.038 189.983 239.391C190.079 239.745 190.098 240.115 190.037 240.476L187.839 277.527Z" fill="#263238" stroke="#263238" stroke-linecap="round" stroke-linejoin="round"/>
<path d="M123.761 238.423H187.065C187.423 238.419 187.777 238.494 188.103 238.641C188.428 238.789 188.718 239.006 188.951 239.277C189.184 239.548 189.355 239.867 189.452 240.212C189.549 240.556 189.57 240.917 189.512 241.27" stroke="white" stroke-linecap="round" stroke-linejoin="round"/>
<path d="M118.736 240.687C118.789 240.067 119.074 239.489 119.533 239.07C119.993 238.65 120.594 238.419 121.216 238.423" stroke="white" stroke-linecap="round" stroke-linejoin="round"/>
<path d="M188.121 273.919H120.16V277.527H188.121V273.919Z" fill="white" stroke="#263238" stroke-linecap="round" stroke-linejoin="round"/>
<path d="M153.898 260.563C156.557 260.563 158.713 259.271 158.713 257.677C158.713 256.083 156.557 254.791 153.898 254.791C151.239 254.791 149.083 256.083 149.083 257.677C149.083 259.271 151.239 260.563 153.898 260.563Z" fill="white" stroke="#263238" stroke-linecap="round" stroke-linejoin="round"/>
<path d="M290.628 277.101H37.5034V283.248H290.628V277.101Z" fill="#263238"/>
<path d="M224.995 49.2002H103.222C99.1167 49.2002 95.7891 52.5278 95.7891 56.6327V126.503C95.7891 130.608 99.1167 133.936 103.222 133.936H224.995C229.1 133.936 232.427 130.608 232.427 126.503V56.6327C232.427 52.5278 229.1 49.2002 224.995 49.2002Z" fill="#0B4266"/>
<path d="M167.321 97.8953C178.367 96.1201 185.883 85.7264 184.108 74.6804C182.332 63.6343 171.939 56.1189 160.893 57.8941C149.847 59.6693 142.331 70.063 144.106 81.109C145.882 92.1551 156.275 99.6706 167.321 97.8953Z" fill="#263238"/>
<path d="M163.954 81.6395L157.204 90.3053C156.974 90.666 156.659 90.964 156.285 91.1724C155.912 91.3808 155.493 91.4931 155.065 91.4992C154.479 91.5072 153.913 91.2832 153.491 90.876C153.276 90.6792 153.107 90.4384 152.993 90.1702C152.88 89.9019 152.826 89.6123 152.835 89.3213C152.856 88.6695 153.086 88.0417 153.491 87.5304L161.186 78.0118L153.97 68.4867C153.634 68.0397 153.451 67.4973 153.445 66.9386C153.443 66.6053 153.511 66.2753 153.643 65.9694C153.775 65.6634 153.969 65.3881 154.213 65.1608C154.441 64.9218 154.716 64.7318 155.021 64.6021C155.325 64.4724 155.653 64.4059 155.984 64.4064C156.407 64.4133 156.823 64.5261 157.192 64.7347C157.561 64.9432 157.872 65.2408 158.096 65.6003L164.617 74.1874L171.177 65.7446C171.411 65.3508 171.739 65.0208 172.132 64.7839C172.524 64.5471 172.969 64.4106 173.427 64.3867C173.711 64.386 173.992 64.4439 174.253 64.5568C174.514 64.6697 174.748 64.8351 174.942 65.0427C175.149 65.2374 175.314 65.4722 175.426 65.7327C175.539 65.9933 175.598 66.2742 175.598 66.5581C175.591 67.0662 175.416 67.5576 175.1 67.9554L167.378 77.8347L174.837 87.6747C175.19 88.1146 175.386 88.6592 175.395 89.2229C175.397 89.5488 175.328 89.8713 175.193 90.1681C175.059 90.4648 174.861 90.7288 174.614 90.9416C174.133 91.4045 173.491 91.663 172.823 91.6632C172.397 91.6579 171.98 91.5458 171.608 91.3373C171.237 91.1287 170.924 90.8302 170.698 90.4693L163.954 81.6395Z" fill="white"/>
<path d="M202.704 119.261H125.486C123.92 119.261 122.418 118.639 121.311 117.532C120.204 116.425 119.582 114.923 119.582 113.357C119.582 111.791 120.204 110.29 121.311 109.182C122.418 108.075 123.92 107.453 125.486 107.453H202.704C204.27 107.453 205.771 108.075 206.879 109.182C207.986 110.29 208.608 111.791 208.608 113.357C208.608 114.923 207.986 116.425 206.879 117.532C205.771 118.639 204.27 119.261 202.704 119.261Z" fill="white"/>
<path d="M136.067 115.26C136.016 115.26 135.965 115.249 135.918 115.229C135.87 115.209 135.828 115.179 135.792 115.142C135.753 115.103 135.723 115.057 135.702 115.006C135.682 114.955 135.672 114.901 135.674 114.846C135.674 114.754 135.699 114.663 135.746 114.584L136.336 113.666H135.129C135.074 113.668 135.018 113.659 134.966 113.639C134.914 113.619 134.867 113.587 134.828 113.547C134.76 113.469 134.723 113.369 134.723 113.265C134.723 113.162 134.76 113.062 134.828 112.983C134.867 112.943 134.914 112.912 134.966 112.892C135.018 112.871 135.074 112.862 135.129 112.865L136.317 112.898L135.792 112.045C135.739 111.958 135.71 111.859 135.707 111.757C135.705 111.702 135.715 111.648 135.735 111.597C135.755 111.546 135.786 111.5 135.825 111.461C135.862 111.424 135.905 111.394 135.954 111.374C136.002 111.354 136.054 111.343 136.107 111.343C136.18 111.342 136.252 111.363 136.314 111.402C136.376 111.442 136.425 111.499 136.455 111.566L137.032 112.596L137.583 111.612C137.618 111.536 137.673 111.47 137.742 111.423C137.811 111.375 137.893 111.348 137.976 111.343C138.028 111.343 138.079 111.354 138.126 111.374C138.174 111.394 138.216 111.424 138.252 111.461C138.29 111.497 138.321 111.541 138.341 111.59C138.362 111.638 138.371 111.691 138.37 111.743C138.369 111.837 138.342 111.928 138.291 112.006L137.714 112.931L138.915 112.898C138.97 112.895 139.026 112.904 139.078 112.924C139.13 112.944 139.178 112.976 139.216 113.016C139.284 113.095 139.321 113.195 139.321 113.298C139.321 113.402 139.284 113.502 139.216 113.58C139.178 113.621 139.13 113.652 139.078 113.672C139.026 113.693 138.97 113.702 138.915 113.698H137.701L138.239 114.538C138.3 114.639 138.333 114.755 138.337 114.873C138.339 114.926 138.33 114.979 138.311 115.028C138.292 115.078 138.263 115.123 138.226 115.161C138.191 115.198 138.15 115.227 138.103 115.248C138.057 115.268 138.007 115.279 137.957 115.279C137.876 115.277 137.797 115.252 137.729 115.207C137.662 115.162 137.609 115.098 137.576 115.023L137.032 114.059L136.487 115.023C136.448 115.099 136.387 115.162 136.313 115.204C136.238 115.246 136.153 115.265 136.067 115.26Z" fill="black"/>
<path d="M142.089 115.259C142.038 115.259 141.987 115.249 141.94 115.228C141.892 115.208 141.849 115.178 141.814 115.141C141.775 115.103 141.745 115.057 141.724 115.006C141.704 114.955 141.694 114.901 141.696 114.846C141.696 114.754 141.721 114.663 141.768 114.584L142.358 113.665H141.151C141.096 113.668 141.04 113.659 140.988 113.639C140.936 113.618 140.889 113.587 140.85 113.547C140.782 113.469 140.745 113.368 140.745 113.265C140.745 113.161 140.782 113.061 140.85 112.983C140.889 112.943 140.936 112.912 140.988 112.891C141.04 112.871 141.096 112.862 141.151 112.865L142.339 112.898L141.781 112.012C141.729 111.925 141.699 111.825 141.696 111.723C141.694 111.669 141.704 111.614 141.724 111.564C141.745 111.513 141.775 111.467 141.814 111.428C141.851 111.391 141.895 111.361 141.943 111.341C141.991 111.32 142.043 111.31 142.096 111.31C142.169 111.309 142.242 111.33 142.303 111.369C142.365 111.409 142.414 111.466 142.444 111.533L143.021 112.563L143.572 111.579C143.607 111.502 143.662 111.437 143.731 111.39C143.801 111.342 143.882 111.315 143.966 111.31C144.017 111.31 144.068 111.321 144.115 111.341C144.163 111.361 144.206 111.391 144.241 111.428C144.28 111.464 144.31 111.508 144.33 111.557C144.351 111.605 144.361 111.658 144.359 111.71C144.358 111.803 144.331 111.894 144.28 111.973L143.703 112.898L144.904 112.865C144.96 112.862 145.015 112.87 145.068 112.891C145.12 112.911 145.167 112.943 145.205 112.983C145.273 113.061 145.31 113.161 145.31 113.265C145.31 113.368 145.273 113.469 145.205 113.547C145.167 113.587 145.12 113.619 145.068 113.639C145.015 113.66 144.96 113.668 144.904 113.665H143.69L144.228 114.505C144.289 114.606 144.323 114.721 144.326 114.839C144.328 114.893 144.319 114.946 144.3 114.995C144.281 115.045 144.252 115.09 144.215 115.128C144.18 115.165 144.139 115.194 144.092 115.215C144.046 115.235 143.996 115.246 143.946 115.246C143.865 115.245 143.785 115.22 143.718 115.175C143.65 115.129 143.597 115.065 143.565 114.99L143.021 114.026L142.476 114.99C142.444 115.067 142.391 115.133 142.322 115.181C142.254 115.229 142.173 115.256 142.089 115.259Z" fill="black"/>
<path d="M148.111 115.259C148.06 115.259 148.009 115.249 147.962 115.228C147.914 115.208 147.871 115.178 147.836 115.141C147.797 115.103 147.767 115.057 147.746 115.006C147.726 114.955 147.716 114.901 147.718 114.846C147.718 114.754 147.743 114.663 147.79 114.584L148.38 113.665H147.173C147.118 113.668 147.062 113.659 147.01 113.639C146.958 113.618 146.911 113.587 146.872 113.547C146.804 113.469 146.767 113.368 146.767 113.265C146.767 113.161 146.804 113.061 146.872 112.983C146.911 112.943 146.958 112.912 147.01 112.891C147.062 112.871 147.118 112.862 147.173 112.865L148.361 112.898L147.803 112.012C147.75 111.925 147.721 111.825 147.718 111.723C147.716 111.669 147.726 111.614 147.746 111.564C147.767 111.513 147.797 111.467 147.836 111.428C147.873 111.391 147.917 111.361 147.965 111.341C148.013 111.32 148.065 111.31 148.118 111.31C148.191 111.309 148.264 111.33 148.325 111.369C148.387 111.409 148.436 111.466 148.466 111.533L149.043 112.563L149.594 111.579C149.629 111.502 149.684 111.437 149.753 111.39C149.823 111.342 149.904 111.315 149.988 111.31C150.039 111.31 150.09 111.321 150.137 111.341C150.185 111.361 150.228 111.391 150.263 111.428C150.302 111.464 150.332 111.508 150.352 111.557C150.373 111.605 150.383 111.658 150.381 111.71C150.38 111.803 150.353 111.894 150.302 111.973L149.725 112.898L150.926 112.865C150.982 112.862 151.037 112.87 151.09 112.891C151.142 112.911 151.189 112.943 151.227 112.983C151.295 113.061 151.332 113.161 151.332 113.265C151.332 113.368 151.295 113.469 151.227 113.547C151.189 113.587 151.142 113.619 151.09 113.639C151.037 113.66 150.982 113.668 150.926 113.665H149.712L150.25 114.505C150.311 114.606 150.345 114.721 150.348 114.839C150.35 114.893 150.341 114.946 150.322 114.995C150.303 115.045 150.274 115.09 150.237 115.128C150.202 115.165 150.161 115.194 150.114 115.215C150.068 115.235 150.018 115.246 149.968 115.246C149.887 115.245 149.807 115.22 149.74 115.175C149.672 115.129 149.619 115.065 149.587 114.99L149.043 114.026L148.498 114.99C148.466 115.067 148.413 115.133 148.344 115.181C148.276 115.229 148.195 115.256 148.111 115.259Z" fill="black"/>
<path d="M154.16 115.259C154.108 115.259 154.057 115.249 154.01 115.228C153.963 115.208 153.92 115.178 153.884 115.141C153.845 115.103 153.815 115.057 153.795 115.006C153.774 114.955 153.765 114.901 153.766 114.846C153.766 114.754 153.791 114.663 153.838 114.584L154.429 113.665H153.222C153.166 113.668 153.11 113.659 153.058 113.639C153.006 113.618 152.959 113.587 152.92 113.547C152.853 113.469 152.815 113.368 152.815 113.265C152.815 113.161 152.853 113.061 152.92 112.983C152.959 112.943 153.006 112.912 153.058 112.891C153.11 112.871 153.166 112.862 153.222 112.865L154.409 112.898L153.851 112.012C153.799 111.925 153.769 111.825 153.766 111.723C153.765 111.669 153.774 111.614 153.795 111.564C153.815 111.513 153.845 111.467 153.884 111.428C153.921 111.391 153.965 111.361 154.013 111.341C154.062 111.32 154.114 111.31 154.166 111.31C154.24 111.309 154.312 111.33 154.374 111.369C154.436 111.409 154.484 111.466 154.514 111.533L155.091 112.563L155.642 111.579C155.677 111.502 155.732 111.437 155.801 111.39C155.871 111.342 155.952 111.315 156.036 111.31C156.087 111.31 156.138 111.321 156.186 111.341C156.233 111.361 156.276 111.391 156.311 111.428C156.35 111.464 156.38 111.508 156.401 111.557C156.421 111.605 156.431 111.658 156.43 111.71C156.429 111.803 156.401 111.894 156.351 111.973L155.774 112.898L156.974 112.865C157.03 112.862 157.086 112.87 157.138 112.891C157.19 112.911 157.237 112.943 157.276 112.983C157.343 113.061 157.38 113.161 157.38 113.265C157.38 113.368 157.343 113.469 157.276 113.547C157.237 113.587 157.19 113.619 157.138 113.639C157.086 113.66 157.03 113.668 156.974 113.665H155.76L156.298 114.505C156.359 114.606 156.393 114.721 156.397 114.839C156.399 114.893 156.39 114.946 156.371 114.995C156.351 115.045 156.322 115.09 156.285 115.128C156.251 115.165 156.209 115.194 156.163 115.215C156.117 115.235 156.067 115.246 156.016 115.246C155.935 115.244 155.856 115.219 155.789 115.174C155.721 115.128 155.668 115.065 155.636 114.99L155.091 114.026L154.547 114.99C154.514 115.067 154.461 115.133 154.392 115.181C154.324 115.229 154.243 115.256 154.16 115.259Z" fill="black"/>
<path d="M160.156 115.259C160.104 115.259 160.053 115.249 160.006 115.228C159.959 115.208 159.916 115.178 159.88 115.141C159.842 115.103 159.811 115.057 159.791 115.006C159.77 114.955 159.761 114.901 159.762 114.846C159.765 114.754 159.79 114.664 159.834 114.584L160.425 113.665H159.218C159.162 113.668 159.106 113.659 159.054 113.639C159.002 113.618 158.955 113.587 158.916 113.547C158.849 113.469 158.812 113.368 158.812 113.265C158.812 113.161 158.849 113.061 158.916 112.983C158.955 112.943 159.002 112.912 159.054 112.891C159.106 112.871 159.162 112.862 159.218 112.865L160.405 112.898L159.848 112.012C159.795 111.925 159.766 111.825 159.762 111.723C159.761 111.669 159.77 111.614 159.791 111.564C159.811 111.513 159.842 111.467 159.88 111.428C159.917 111.391 159.961 111.361 160.009 111.341C160.058 111.32 160.11 111.31 160.162 111.31C160.236 111.309 160.308 111.33 160.37 111.369C160.432 111.409 160.48 111.466 160.51 111.533L161.087 112.563L161.638 111.579C161.673 111.503 161.728 111.437 161.798 111.39C161.867 111.342 161.948 111.315 162.032 111.31C162.084 111.309 162.135 111.319 162.182 111.34C162.23 111.36 162.273 111.39 162.308 111.428C162.346 111.464 162.376 111.508 162.397 111.557C162.417 111.605 162.427 111.658 162.426 111.71C162.425 111.803 162.397 111.894 162.347 111.973L161.77 112.898L162.97 112.865C163.026 112.862 163.082 112.87 163.134 112.891C163.186 112.911 163.233 112.943 163.272 112.983C163.339 113.061 163.376 113.161 163.376 113.265C163.376 113.368 163.339 113.469 163.272 113.547C163.233 113.587 163.186 113.619 163.134 113.639C163.082 113.66 163.026 113.668 162.97 113.665H161.757L162.294 114.505C162.355 114.606 162.389 114.721 162.393 114.839C162.395 114.893 162.386 114.946 162.367 114.995C162.347 115.045 162.318 115.09 162.281 115.128C162.247 115.165 162.205 115.194 162.159 115.215C162.113 115.235 162.063 115.246 162.012 115.246C161.931 115.244 161.852 115.219 161.785 115.174C161.717 115.128 161.664 115.065 161.632 114.99L161.087 114.026L160.543 114.99C160.511 115.067 160.457 115.133 160.388 115.181C160.32 115.229 160.239 115.256 160.156 115.259Z" fill="black"/>
<path d="M166.178 115.259C166.126 115.259 166.075 115.249 166.028 115.228C165.981 115.208 165.938 115.178 165.902 115.141C165.864 115.103 165.833 115.057 165.813 115.006C165.792 114.955 165.783 114.901 165.784 114.846C165.787 114.754 165.812 114.664 165.856 114.584L166.447 113.665H165.246C165.189 113.669 165.133 113.66 165.079 113.639C165.026 113.619 164.978 113.588 164.938 113.547C164.871 113.469 164.833 113.368 164.833 113.265C164.833 113.161 164.871 113.061 164.938 112.983C164.978 112.942 165.026 112.911 165.079 112.891C165.133 112.87 165.189 112.861 165.246 112.865L166.427 112.898L165.87 112.012C165.817 111.925 165.788 111.825 165.784 111.723C165.783 111.669 165.792 111.614 165.813 111.564C165.833 111.513 165.864 111.467 165.902 111.428C165.939 111.391 165.983 111.361 166.031 111.341C166.08 111.32 166.132 111.31 166.184 111.31C166.258 111.309 166.33 111.33 166.392 111.369C166.454 111.409 166.502 111.466 166.532 111.533L167.109 112.563L167.66 111.579C167.695 111.503 167.75 111.437 167.82 111.39C167.889 111.342 167.97 111.315 168.054 111.31C168.106 111.309 168.157 111.319 168.204 111.34C168.252 111.36 168.294 111.39 168.33 111.428C168.368 111.464 168.398 111.508 168.419 111.557C168.439 111.605 168.449 111.658 168.448 111.71C168.447 111.803 168.419 111.894 168.369 111.973L167.792 112.898L168.992 112.865C169.048 112.862 169.104 112.87 169.156 112.891C169.208 112.911 169.255 112.943 169.294 112.983C169.361 113.061 169.398 113.161 169.398 113.265C169.398 113.368 169.361 113.469 169.294 113.547C169.255 113.587 169.208 113.619 169.156 113.639C169.104 113.66 169.048 113.668 168.992 113.665H167.778L168.316 114.505C168.377 114.606 168.411 114.721 168.415 114.839C168.417 114.893 168.408 114.946 168.389 114.995C168.369 115.045 168.34 115.09 168.303 115.128C168.269 115.165 168.227 115.194 168.181 115.215C168.135 115.235 168.085 115.246 168.034 115.246C167.953 115.244 167.874 115.219 167.807 115.174C167.739 115.128 167.686 115.065 167.654 114.99L167.109 114.026L166.565 114.99C166.533 115.067 166.479 115.133 166.41 115.181C166.342 115.229 166.261 115.256 166.178 115.259Z" fill="black"/>
<path d="M172.2 115.26C172.148 115.26 172.097 115.249 172.05 115.229C172.003 115.209 171.96 115.179 171.924 115.142C171.885 115.103 171.855 115.057 171.835 115.006C171.814 114.955 171.805 114.901 171.806 114.846C171.806 114.754 171.831 114.663 171.878 114.584L172.469 113.666H171.262C171.206 113.668 171.15 113.659 171.098 113.639C171.046 113.619 170.999 113.587 170.96 113.547C170.893 113.469 170.855 113.369 170.855 113.265C170.855 113.162 170.893 113.062 170.96 112.983C170.999 112.943 171.046 112.912 171.098 112.892C171.15 112.871 171.206 112.862 171.262 112.865L172.449 112.898L171.872 112.045C171.819 111.958 171.79 111.859 171.787 111.757C171.785 111.702 171.795 111.648 171.815 111.597C171.835 111.546 171.866 111.5 171.905 111.461C171.941 111.424 171.985 111.394 172.034 111.374C172.082 111.354 172.134 111.343 172.187 111.343C172.26 111.342 172.332 111.363 172.394 111.402C172.456 111.442 172.505 111.499 172.534 111.566L173.112 112.596L173.663 111.612C173.697 111.536 173.752 111.47 173.822 111.423C173.891 111.375 173.972 111.348 174.056 111.343C174.108 111.343 174.159 111.353 174.207 111.373C174.254 111.393 174.297 111.423 174.332 111.461C174.37 111.497 174.401 111.541 174.421 111.59C174.441 111.638 174.451 111.691 174.45 111.743C174.449 111.837 174.422 111.928 174.371 112.006L173.794 112.931L174.994 112.898C175.05 112.895 175.106 112.904 175.158 112.924C175.21 112.944 175.257 112.976 175.296 113.016C175.364 113.095 175.401 113.195 175.401 113.298C175.401 113.402 175.364 113.502 175.296 113.58C175.257 113.621 175.21 113.652 175.158 113.672C175.106 113.693 175.05 113.702 174.994 113.698H173.781L174.319 114.538C174.379 114.639 174.413 114.755 174.417 114.873C174.419 114.926 174.41 114.979 174.391 115.028C174.372 115.078 174.343 115.123 174.306 115.161C174.271 115.198 174.229 115.227 174.183 115.248C174.137 115.268 174.087 115.279 174.037 115.279C173.955 115.277 173.876 115.252 173.809 115.207C173.742 115.162 173.689 115.098 173.656 115.023L173.112 114.059L172.567 115.023C172.532 115.091 172.479 115.149 172.415 115.19C172.35 115.232 172.276 115.256 172.2 115.26Z" fill="black"/>
<path d="M178.222 115.259C178.17 115.259 178.119 115.249 178.072 115.229C178.025 115.208 177.982 115.179 177.946 115.141C177.908 115.103 177.877 115.057 177.857 115.006C177.837 114.955 177.827 114.901 177.828 114.846C177.831 114.754 177.856 114.664 177.901 114.584L178.491 113.665H177.29C177.235 113.669 177.178 113.661 177.126 113.641C177.074 113.62 177.027 113.588 176.989 113.547C176.917 113.471 176.877 113.37 176.877 113.265C176.877 113.16 176.917 113.06 176.989 112.983C177.027 112.942 177.074 112.91 177.126 112.89C177.178 112.869 177.235 112.861 177.29 112.865L178.471 112.898L177.914 112.012C177.861 111.925 177.832 111.825 177.828 111.724C177.827 111.67 177.836 111.616 177.855 111.566C177.874 111.516 177.903 111.471 177.941 111.432C177.978 111.393 178.023 111.363 178.072 111.342C178.122 111.321 178.175 111.31 178.229 111.31C178.302 111.309 178.374 111.33 178.436 111.369C178.498 111.409 178.547 111.466 178.576 111.533L179.153 112.563L179.705 111.579C179.739 111.503 179.794 111.437 179.864 111.39C179.933 111.342 180.014 111.315 180.098 111.31C180.15 111.309 180.201 111.318 180.249 111.339C180.297 111.359 180.339 111.39 180.374 111.428C180.412 111.464 180.442 111.508 180.463 111.557C180.483 111.605 180.493 111.658 180.492 111.71C180.491 111.804 180.464 111.895 180.413 111.973L179.836 112.898L181.036 112.865C181.092 112.862 181.148 112.871 181.2 112.891C181.252 112.911 181.299 112.943 181.338 112.983C181.405 113.062 181.442 113.162 181.442 113.265C181.442 113.369 181.405 113.469 181.338 113.547C181.299 113.588 181.252 113.619 181.2 113.639C181.148 113.66 181.092 113.669 181.036 113.665H179.823L180.361 114.505C180.421 114.606 180.455 114.721 180.459 114.84C180.461 114.891 180.452 114.943 180.434 114.991C180.416 115.04 180.388 115.084 180.353 115.122C180.318 115.16 180.275 115.19 180.228 115.211C180.181 115.233 180.13 115.245 180.078 115.246C179.997 115.244 179.918 115.219 179.851 115.174C179.783 115.128 179.73 115.065 179.698 114.99L179.153 114.026L178.609 114.99C178.577 115.067 178.523 115.134 178.455 115.181C178.386 115.229 178.305 115.256 178.222 115.259Z" fill="black"/>
<path d="M184.244 115.259C184.192 115.259 184.141 115.249 184.094 115.229C184.047 115.208 184.004 115.179 183.968 115.141C183.93 115.103 183.899 115.057 183.879 115.006C183.858 114.955 183.849 114.901 183.85 114.846C183.853 114.754 183.878 114.664 183.922 114.584L184.513 113.665H183.306C183.251 113.669 183.196 113.66 183.145 113.639C183.094 113.619 183.048 113.587 183.011 113.547C182.939 113.471 182.899 113.37 182.899 113.265C182.899 113.16 182.939 113.06 183.011 112.983C183.048 112.943 183.094 112.911 183.145 112.891C183.196 112.871 183.251 112.862 183.306 112.865L184.493 112.898L183.936 112.012C183.883 111.925 183.854 111.825 183.85 111.724C183.849 111.67 183.858 111.616 183.877 111.566C183.896 111.516 183.925 111.471 183.963 111.432C184 111.393 184.045 111.363 184.094 111.342C184.144 111.321 184.197 111.31 184.25 111.31C184.324 111.309 184.396 111.33 184.458 111.369C184.52 111.409 184.569 111.466 184.598 111.533L185.175 112.563L185.726 111.579C185.761 111.503 185.816 111.437 185.886 111.39C185.955 111.342 186.036 111.315 186.12 111.31C186.172 111.309 186.223 111.318 186.271 111.339C186.319 111.359 186.361 111.39 186.396 111.428C186.434 111.464 186.464 111.508 186.485 111.557C186.505 111.605 186.515 111.658 186.514 111.71C186.513 111.804 186.486 111.895 186.435 111.973L185.858 112.898L187.058 112.865C187.114 112.862 187.17 112.871 187.222 112.891C187.274 112.911 187.321 112.943 187.36 112.983C187.427 113.062 187.464 113.162 187.464 113.265C187.464 113.369 187.427 113.469 187.36 113.547C187.321 113.588 187.274 113.619 187.222 113.639C187.17 113.66 187.114 113.669 187.058 113.665H185.845L186.382 114.505C186.443 114.606 186.477 114.721 186.481 114.84C186.483 114.891 186.474 114.943 186.456 114.991C186.438 115.04 186.41 115.084 186.375 115.122C186.34 115.16 186.297 115.19 186.25 115.211C186.203 115.233 186.152 115.245 186.1 115.246C186.019 115.244 185.94 115.219 185.873 115.174C185.805 115.128 185.752 115.065 185.72 114.99L185.175 114.026L184.631 114.99C184.599 115.067 184.545 115.134 184.477 115.181C184.408 115.229 184.327 115.256 184.244 115.259Z" fill="black"/>
<path d="M190.24 115.259C190.188 115.259 190.137 115.249 190.09 115.229C190.043 115.208 190 115.179 189.964 115.141C189.926 115.103 189.895 115.057 189.875 115.006C189.855 114.955 189.845 114.901 189.846 114.846C189.849 114.754 189.874 114.664 189.919 114.584L190.509 113.665H189.302C189.247 113.669 189.192 113.66 189.141 113.639C189.09 113.619 189.044 113.587 189.007 113.547C188.935 113.471 188.896 113.37 188.896 113.265C188.896 113.16 188.935 113.06 189.007 112.983C189.044 112.943 189.09 112.911 189.141 112.891C189.192 112.871 189.247 112.862 189.302 112.865L190.489 112.898L189.932 112.012C189.879 111.925 189.85 111.825 189.846 111.724C189.845 111.669 189.855 111.614 189.875 111.564C189.895 111.513 189.926 111.467 189.964 111.428C190.001 111.391 190.045 111.361 190.094 111.341C190.142 111.32 190.194 111.31 190.247 111.31C190.32 111.309 190.392 111.33 190.454 111.369C190.516 111.409 190.565 111.466 190.594 111.533L191.172 112.563L191.723 111.579C191.757 111.503 191.812 111.437 191.882 111.39C191.951 111.342 192.032 111.315 192.116 111.31C192.168 111.309 192.219 111.318 192.267 111.339C192.315 111.359 192.357 111.39 192.392 111.428C192.43 111.464 192.461 111.508 192.481 111.557C192.501 111.605 192.511 111.658 192.51 111.71C192.509 111.804 192.482 111.895 192.431 111.973L191.854 112.898L193.054 112.865C193.11 112.862 193.166 112.871 193.218 112.891C193.27 112.911 193.317 112.943 193.356 112.983C193.423 113.062 193.461 113.162 193.461 113.265C193.461 113.369 193.423 113.469 193.356 113.547C193.317 113.588 193.27 113.619 193.218 113.639C193.166 113.66 193.11 113.669 193.054 113.665H191.841L192.379 114.505C192.439 114.606 192.473 114.721 192.477 114.84C192.479 114.893 192.47 114.946 192.451 114.995C192.432 115.045 192.403 115.09 192.365 115.128C192.331 115.165 192.289 115.194 192.243 115.215C192.197 115.235 192.147 115.246 192.096 115.246C192.015 115.244 191.936 115.219 191.869 115.174C191.802 115.128 191.748 115.065 191.716 114.99L191.172 114.026L190.627 114.99C190.595 115.067 190.541 115.134 190.473 115.181C190.404 115.229 190.323 115.256 190.24 115.259Z" fill="black"/>
<path d="M210.878 129.77H218.901" stroke="white" stroke-width="3" stroke-linecap="round" stroke-linejoin="round"/>
<path d="M99.6006 70.6973V123.984C99.6006 125.527 100.214 127.007 101.305 128.099C102.396 129.19 103.876 129.803 105.419 129.803H203.262" stroke="white" stroke-width="3" stroke-linecap="round" stroke-linejoin="round"/>
<path d="M99.6006 56.5669V64.557" stroke="white" stroke-width="3" stroke-linecap="round" stroke-linejoin="round"/>
</svg>
