<svg width="328" height="328" viewBox="0 0 328 328" fill="none" xmlns="http://www.w3.org/2000/svg">
<g clip-path="url(#clip0_216_7014)">
<rect width="328" height="328" fill="white"/>
<path d="M47.5653 118.909C92.3665 102.277 137.902 116.981 168.784 149.008C199.666 181.035 264.478 126.903 298.852 158.877C322.31 180.698 311.565 236.801 279.4 261.1C235.68 294.128 102.725 277.37 73.9638 271.749C40.8291 265.273 16.6056 245.626 6.7637 221.78C-16.9508 164.323 27.7673 126.259 47.5653 118.909Z" fill="#0E4366"/>
<path opacity="0.7" d="M47.5653 118.909C92.3665 102.277 137.902 116.981 168.784 149.008C199.666 181.035 264.478 126.903 298.852 158.877C322.31 180.698 311.565 236.801 279.4 261.1C235.68 294.128 102.725 277.37 73.9638 271.749C40.8291 265.273 16.6056 245.626 6.7637 221.78C-16.9508 164.323 27.7673 126.259 47.5653 118.909Z" fill="white"/>
<path d="M200.7 142.168C200.852 140.812 200.931 139.434 200.931 138.039C200.931 137.302 200.908 136.571 200.865 135.845L194.041 133.638C193.621 130.761 192.795 128.017 191.625 125.462L196.15 119.895C195.104 118.053 193.904 116.31 192.566 114.685L185.741 116.912C183.751 114.881 181.479 113.128 178.985 111.719L179.373 104.549C177.469 103.682 175.478 102.973 173.417 102.438L169.203 108.253C167.56 107.977 165.874 107.831 164.153 107.831C162.98 107.831 161.823 107.9 160.684 108.03L156.783 102C154.693 102.425 152.667 103.028 150.721 103.791L150.73 110.972C148.16 112.248 145.799 113.879 143.709 115.801L137.014 113.218C135.591 114.773 134.3 116.448 133.159 118.231L137.384 124.031C136.076 126.525 135.106 129.223 134.536 132.067L127.606 133.911C127.454 135.266 127.375 136.644 127.375 138.04C127.375 138.776 127.398 139.507 127.441 140.233L134.265 142.44C134.684 145.317 135.51 148.062 136.68 150.616L132.156 156.184C133.202 158.025 134.402 159.768 135.74 161.393L142.565 159.166C144.553 161.198 146.826 162.951 149.321 164.36L148.932 171.529C150.837 172.396 152.828 173.106 154.889 173.641L159.103 167.825C160.745 168.101 162.432 168.248 164.153 168.248C165.326 168.248 166.483 168.179 167.622 168.048L171.523 174.078C173.613 173.654 175.639 173.051 177.585 172.287L177.576 165.107C180.146 163.83 182.507 162.2 184.597 160.277L191.292 162.861C192.715 161.306 194.006 159.63 195.147 157.848L190.922 152.047C192.23 149.553 193.201 146.855 193.77 144.012L200.7 142.168ZM164.153 152.463C156.186 152.463 149.727 146.005 149.727 138.039C149.727 130.072 156.185 123.613 164.153 123.613C172.121 123.613 178.579 130.071 178.579 138.039C178.579 146.006 172.121 152.463 164.153 152.463Z" fill="#0E4366"/>
<path d="M183.828 154.491C183.706 154.491 183.584 154.45 183.484 154.366C183.255 154.175 183.224 153.835 183.414 153.606C187.039 149.247 189.036 143.718 189.036 138.039C189.036 135.319 188.592 132.648 187.714 130.101C187.617 129.82 187.767 129.512 188.048 129.415C188.33 129.318 188.637 129.468 188.734 129.75C189.651 132.41 190.116 135.199 190.116 138.039C190.116 143.969 188.03 149.744 184.244 154.297C184.137 154.425 183.984 154.491 183.829 154.491H183.828Z" fill="white"/>
<path d="M181.739 120.444C181.607 120.444 181.474 120.395 181.369 120.297C178.933 118.003 176.111 116.264 172.982 115.129C172.702 115.027 172.557 114.718 172.659 114.437C172.76 114.157 173.069 114.013 173.35 114.115C176.618 115.301 179.565 117.116 182.109 119.511C182.326 119.715 182.337 120.057 182.132 120.273C182.026 120.387 181.883 120.443 181.739 120.443V120.444Z" fill="white"/>
<path d="M158.558 114.431C158.317 114.431 158.098 114.268 158.036 114.023C157.963 113.734 158.139 113.441 158.427 113.369C160.457 112.857 162.559 112.597 164.672 112.597C164.97 112.597 165.212 112.838 165.212 113.136C165.212 113.433 164.97 113.675 164.672 113.675C162.647 113.675 160.635 113.924 158.691 114.415C158.647 114.426 158.603 114.431 158.558 114.431Z" fill="white"/>
<path d="M84.7592 233.506C84.8638 232.567 84.9199 231.614 84.9199 230.647C84.9199 230.136 84.9026 229.63 84.8735 229.127L80.1472 227.598C79.8561 225.605 79.2845 223.704 78.4736 221.936L81.6073 218.08C80.8826 216.804 80.0512 215.597 79.125 214.472L74.3987 216.014C73.0206 214.606 71.4462 213.392 69.7198 212.417L69.9883 207.452C68.6695 206.851 67.2903 206.36 65.8626 205.99L62.9436 210.017C61.806 209.825 60.6382 209.725 59.4455 209.725C58.6325 209.725 57.8313 209.772 57.043 209.863L54.3407 205.687C52.8926 205.981 51.4897 206.398 50.1428 206.927L50.1493 211.9C48.3701 212.784 46.7342 213.913 45.2861 215.245L40.6493 213.456C39.6637 214.533 38.7697 215.693 37.9782 216.928L40.9048 220.945C39.999 222.672 39.3272 224.541 38.9315 226.51L34.1319 227.787C34.0273 228.726 33.9712 229.68 33.9712 230.647C33.9712 231.157 33.9884 231.663 34.0176 232.166L38.7439 233.695C39.035 235.688 39.6065 237.589 40.4174 239.357L37.2838 243.213C38.0084 244.489 38.8398 245.696 39.7661 246.821L44.4924 245.279C45.8705 246.687 47.4449 247.901 49.1713 248.876L48.9028 253.841C50.2215 254.442 51.6007 254.933 53.0284 255.303L55.9474 251.276C57.0851 251.468 58.2529 251.568 59.4455 251.568C60.2586 251.568 61.0598 251.52 61.848 251.43L64.5503 255.606C65.9985 255.312 67.4014 254.895 68.7482 254.366L68.7418 249.393C70.521 248.509 72.1568 247.38 73.605 246.048L78.2418 247.837C79.2274 246.76 80.1213 245.6 80.9128 244.365L77.9863 240.348C78.892 238.621 79.5638 236.752 79.9596 234.783L84.7592 233.506ZM59.4455 240.637C53.9277 240.637 49.4538 236.164 49.4538 230.645C49.4538 225.127 53.9267 220.654 59.4455 220.654C64.9644 220.654 69.4373 225.127 69.4373 230.645C69.4373 236.164 64.9644 240.637 59.4455 240.637Z" fill="#0E4366"/>
<path d="M73.0736 242.207C72.9518 242.207 72.8299 242.166 72.7296 242.082C72.501 241.891 72.4698 241.551 72.6595 241.323C75.1462 238.333 76.5156 234.541 76.5156 230.645C76.5156 228.78 76.2105 226.948 75.6088 225.201C75.5117 224.919 75.6616 224.612 75.943 224.515C76.2245 224.418 76.5318 224.568 76.6289 224.849C77.2694 226.709 77.594 228.659 77.594 230.644C77.594 234.791 76.1361 238.828 73.4888 242.011C73.382 242.139 73.2289 242.205 73.0736 242.205V242.207Z" fill="#0E4366"/>
<path d="M71.6266 218.625C71.4939 218.625 71.3613 218.576 71.2567 218.478C69.5853 216.905 67.6508 215.712 65.5038 214.934C65.2235 214.832 65.079 214.523 65.1803 214.243C65.2817 213.962 65.5912 213.818 65.8715 213.919C68.1565 214.748 70.2172 216.018 71.9953 217.692C72.2121 217.896 72.2229 218.238 72.018 218.455C71.9123 218.567 71.7689 218.624 71.6255 218.624L71.6266 218.625Z" fill="#0E4366"/>
<path d="M55.5703 214.461C55.3288 214.461 55.1099 214.298 55.0484 214.053C54.9751 213.764 55.1508 213.471 55.4387 213.399C56.8589 213.041 58.3276 212.858 59.806 212.858C60.1036 212.858 60.3451 213.1 60.3451 213.398C60.3451 213.695 60.1036 213.937 59.806 213.937C58.4171 213.937 57.0368 214.107 55.7029 214.444C55.6587 214.454 55.6145 214.46 55.5703 214.46V214.461Z" fill="#0E4366"/>
<path d="M222.724 169.64C222.724 169.362 222.716 169.085 222.702 168.81L226.243 165.966C225.966 164.547 225.531 163.185 224.956 161.899L220.384 161.552C219.345 159.912 217.999 158.486 216.427 157.352L216.412 152.796C215.138 152.129 213.781 151.6 212.357 151.233L209.232 154.596C208.693 154.538 208.146 154.508 207.592 154.508C206.215 154.508 204.881 154.693 203.613 155.037L200.03 152.199C198.678 152.787 197.406 153.525 196.24 154.397L196.918 158.914C195.582 160.243 194.494 161.821 193.726 163.572L189.268 164.605C188.892 165.981 188.665 167.42 188.609 168.902L192.536 171.172C192.735 173.161 193.321 175.035 194.215 176.72L192.249 180.837C193.092 181.99 194.061 183.046 195.138 183.981L199.347 182.332C201.003 183.409 202.881 184.171 204.899 184.534L206.883 188.619C207.119 188.628 207.356 188.635 207.595 188.635C208.785 188.635 209.948 188.525 211.077 188.315L212.416 183.988C214.365 183.334 216.136 182.292 217.64 180.956L222.064 181.95C222.972 180.885 223.764 179.718 224.422 178.468L221.857 174.702C222.419 173.119 222.725 171.416 222.725 169.641L222.724 169.64ZM207.426 176.307C203.906 176.307 201.052 173.454 201.052 169.933C201.052 166.412 203.905 163.559 207.426 163.559C210.947 163.559 213.8 166.412 213.8 169.933C213.8 173.454 210.947 176.307 207.426 176.307Z" fill="#0E4366"/>
<g opacity="0.8">
<path d="M281.643 132.921H276.165C274.049 132.921 272.328 131.2 272.328 129.084V123.606C272.328 121.491 274.049 119.77 276.165 119.77H281.643C283.759 119.77 285.48 121.491 285.48 123.606V129.084C285.48 131.2 283.759 132.921 281.643 132.921ZM276.165 121.28C274.882 121.28 273.838 122.324 273.838 123.607V129.085C273.838 130.368 274.882 131.412 276.165 131.412H281.643C282.926 131.412 283.97 130.368 283.97 129.085V123.607C283.97 122.324 282.926 121.28 281.643 121.28H276.165Z" fill="#0E4366"/>
</g>
<g opacity="0.8">
<path d="M255.868 132.921H250.39C248.274 132.921 246.553 131.2 246.553 129.084V123.606C246.553 121.491 248.274 119.77 250.39 119.77H255.868C257.983 119.77 259.704 121.491 259.704 123.606V129.084C259.704 131.2 257.983 132.921 255.868 132.921ZM250.39 121.28C249.107 121.28 248.063 122.324 248.063 123.607V129.085C248.063 130.368 249.107 131.412 250.39 131.412H255.868C257.151 131.412 258.195 130.368 258.195 129.085V123.607C258.195 122.324 257.151 121.28 255.868 121.28H250.39Z" fill="#0E4366"/>
</g>
<path d="M253.471 129.731C253.46 129.731 253.45 129.731 253.439 129.731C253.25 129.722 253.073 129.63 252.957 129.479L249.02 124.343C248.803 124.059 248.856 123.653 249.14 123.436C249.424 123.219 249.829 123.272 250.047 123.556L253.519 128.085L262.585 118.372C262.828 118.111 263.238 118.097 263.499 118.341C263.76 118.585 263.774 118.994 263.53 119.255L253.944 129.526C253.821 129.658 253.65 129.732 253.471 129.732V129.731Z" fill="#F37168"/>
<path d="M299.75 284.391C277.324 283.294 201.033 285.152 177.831 285.875C154.629 286.599 127.697 284.92 113.706 282.451C99.7163 279.981 18.8495 282.661 22.519 289.301C26.1885 295.942 58.5491 292.272 95.2466 294.941C131.944 297.61 214.477 294.608 233.093 294.941C251.71 295.274 268.781 294.273 292.773 292.94C316.765 291.605 312.749 285.027 299.75 284.392V284.391Z" fill="#0E4366"/>
<path opacity="0.7" d="M299.75 284.391C277.324 283.294 201.033 285.152 177.831 285.875C154.629 286.599 127.697 284.92 113.706 282.451C99.7163 279.981 18.8495 282.661 22.519 289.301C26.1885 295.942 58.5491 292.272 95.2466 294.941C131.944 297.61 214.477 294.608 233.093 294.941C251.71 295.274 268.781 294.273 292.773 292.94C316.765 291.605 312.749 285.027 299.75 284.392V284.391Z" fill="white"/>
<path d="M70.5251 135.539H23.646V212.377H70.5251V135.539Z" fill="#263238"/>
<path d="M68.9841 137.105H26.1013V209.449H68.9841V137.105Z" fill="white"/>
<path d="M38.9283 166.115C40.5426 162.643 43.274 161.531 47.7598 161.531C53.1007 161.531 55.8742 163.466 56.6603 166.283C47.0956 166.415 38.9272 166.115 38.9272 166.115H38.9283Z" fill="#9BD6E8"/>
<path d="M45.8952 144.642C43.634 145.278 43.7332 146.548 42.9794 147.726C42.2257 148.906 40.5877 149.692 40.3915 150.478C40.1952 151.264 40.8961 152.902 40.0637 153.82C39.2323 154.738 38.9497 155.196 39.2776 156.113C39.6054 157.03 40.3257 158.471 40.3915 158.667C40.4572 158.863 41.3738 160.239 42.4877 160.436C43.6016 160.632 45.6979 160.96 46.746 161.418C47.7942 161.876 51.165 160.831 53.0359 160.896C54.9068 160.962 56.1803 159.584 56.0498 158.666C55.9193 157.748 57.429 155.914 57.4258 154.342C57.4214 152.653 55.46 151.394 54.9359 150.28C54.4118 149.166 55.0017 147.2 53.0359 146.037C51.7937 145.301 50.9396 145.366 49.9562 145.039C48.9739 144.711 47.3359 144.236 45.8942 144.641L45.8952 144.642Z" fill="#3A384D"/>
<path d="M48.6462 164.302C48.135 165.057 47.7598 165.088 47.2045 164.302C46.7634 163.677 45.8943 162.257 45.8943 161.536V154.344C45.8943 153.624 46.4841 153.034 47.2045 153.034H48.6462C49.3665 153.034 49.9563 153.624 49.9563 154.344V161.536C49.9563 162.257 49.1045 163.625 48.6462 164.302Z" fill="#F09959"/>
<path d="M48.6462 153.034H47.2045C46.4841 153.034 45.8943 153.624 45.8943 154.344V160.761C47.5129 161.276 48.9902 160.252 49.9563 159.098V154.344C49.9563 153.624 49.3665 153.034 48.6462 153.034Z" fill="#E38540"/>
<path d="M47.9258 159.042C50.3318 159.042 52.2822 156.385 52.2822 153.106C52.2822 149.828 50.3318 147.17 47.9258 147.17C45.5198 147.17 43.5693 149.828 43.5693 153.106C43.5693 156.385 45.5198 159.042 47.9258 159.042Z" fill="#F09959"/>
<path d="M49.9572 148.382C47.2054 153.034 43.1433 152.575 43.1433 152.575C43.1433 152.575 43.2414 146.416 46.4678 146.089C49.6941 145.761 51.5941 147.056 52.2498 149.193C52.9054 151.33 52.2498 152.739 52.2498 152.739C52.2498 152.739 51.2016 151.92 50.6776 150.609C50.1535 149.299 49.9572 148.381 49.9572 148.381V148.382Z" fill="#3A384D"/>
<path d="M44.0148 153.014C44.4224 153.873 44.2887 154.788 43.7172 155.06C43.1456 155.332 42.3509 154.856 41.9433 153.999C41.5357 153.141 41.6694 152.225 42.2409 151.953C42.8124 151.682 43.6072 152.157 44.0148 153.014Z" fill="#F09959"/>
<path d="M51.6396 153.014C51.232 153.873 51.3657 154.788 51.9372 155.06C52.5087 155.332 53.3035 154.856 53.7111 153.999C54.1187 153.141 53.985 152.225 53.4134 151.953C52.8419 151.682 52.0472 152.157 51.6396 153.014Z" fill="#F09959"/>
<path d="M49.5638 156.326C49.5638 156.326 48.8305 157.277 47.9258 157.277C47.0211 157.277 46.2878 156.326 46.2878 156.326H49.5638Z" fill="white"/>
<path d="M53.1121 175.532H42.1099C41.4069 175.532 40.8311 174.956 40.8311 174.253C40.8311 173.55 41.4069 172.974 42.1099 172.974H53.1121C53.8152 172.974 54.391 173.55 54.391 174.253C54.391 174.956 53.8152 175.532 53.1121 175.532Z" fill="#263238"/>
<path d="M55.1266 179.463H40.0958C39.3927 179.463 38.8169 178.887 38.8169 178.184C38.8169 177.481 39.3927 176.905 40.0958 176.905H55.1266C55.8296 176.905 56.4054 177.481 56.4054 178.184C56.4054 178.887 55.8296 179.463 55.1266 179.463Z" fill="#263238"/>
<path d="M65.8926 193.599H29.3288C28.9201 193.599 28.5869 193.265 28.5869 192.858C28.5869 192.45 28.9212 192.116 29.3288 192.116H65.8926C66.3013 192.116 66.6345 192.45 66.6345 192.858C66.6345 193.265 66.3002 193.599 65.8926 193.599Z" fill="#263238"/>
<path d="M65.8926 197.049H29.3288C28.9201 197.049 28.5869 196.714 28.5869 196.307C28.5869 195.899 28.9212 195.565 29.3288 195.565H65.8926C66.3013 195.565 66.6345 195.899 66.6345 196.307C66.6345 196.714 66.3002 197.049 65.8926 197.049Z" fill="#263238"/>
<path d="M65.8926 200.499H29.3288C28.9201 200.499 28.5869 200.165 28.5869 199.758C28.5869 199.35 28.9212 199.016 29.3288 199.016H65.8926C66.3013 199.016 66.6345 199.35 66.6345 199.758C66.6345 200.165 66.3002 200.499 65.8926 200.499Z" fill="#263238"/>
<path d="M60.7781 166.968H34.4422C33.7111 166.968 33.1169 166.374 33.1169 165.643V141.371C33.1169 140.64 33.7111 140.045 34.4422 140.045H60.7781C61.5092 140.045 62.1034 140.64 62.1034 141.371V165.643C62.1034 166.374 61.5092 166.968 60.7781 166.968ZM34.4422 141.124C34.3085 141.124 34.1953 141.237 34.1953 141.371V165.643C34.1953 165.776 34.3085 165.89 34.4422 165.89H60.7781C60.9118 165.89 61.0251 165.776 61.0251 165.643V141.371C61.0251 141.237 60.9118 141.124 60.7781 141.124H34.4422Z" fill="#263238"/>
<path d="M38.2433 182.8L39.0057 184.345L40.7105 184.593L39.4769 185.795L39.7681 187.493L38.2433 186.691L36.7186 187.493L37.0097 185.795L35.7761 184.593L37.481 184.345L38.2433 182.8Z" fill="#263238"/>
<path d="M44.488 182.8L45.2503 184.345L46.9552 184.593L45.7216 185.795L46.0127 187.493L44.488 186.691L42.9632 187.493L43.2544 185.795L42.0208 184.593L43.7256 184.345L44.488 182.8Z" fill="#263238"/>
<path d="M50.7338 182.8L51.4962 184.345L53.201 184.593L51.9674 185.795L52.2586 187.493L50.7338 186.691L49.2091 187.493L49.5002 185.795L48.2666 184.593L49.9714 184.345L50.7338 182.8Z" fill="#263238"/>
<path d="M56.9782 182.8L57.7406 184.345L59.4454 184.593L58.2118 185.795L58.5029 187.493L56.9782 186.691L55.4534 187.493L55.7446 185.795L54.511 184.593L56.2158 184.345L56.9782 182.8Z" fill="#263238"/>
<path d="M175.039 135.539H128.159V212.377H175.039V135.539Z" fill="#263238"/>
<path d="M173.497 137.105H130.614V209.449H173.497V137.105Z" fill="white"/>
<path d="M145.478 152.715C145.478 156.157 147.551 161.709 152.439 161.531C157.327 161.353 158.408 156.06 158.597 154.566C158.787 153.073 145.478 152.715 145.478 152.715Z" fill="#7A4E34"/>
<path d="M143.441 166.115C145.056 162.643 147.787 161.531 152.273 161.531C157.614 161.531 160.387 163.466 161.173 166.283C151.609 166.415 143.44 166.115 143.44 166.115H143.441Z" fill="#D54A41"/>
<path d="M153.159 164.302C152.648 165.057 152.273 165.088 151.717 164.302C151.276 163.677 150.407 162.257 150.407 161.536V154.344C150.407 153.624 150.997 153.034 151.717 153.034H153.159C153.879 153.034 154.469 153.624 154.469 154.344V161.536C154.469 162.257 153.617 163.625 153.159 164.302Z" fill="#F09959"/>
<path d="M153.159 153.034H151.717C150.997 153.034 150.407 153.624 150.407 154.344V160.761C152.026 161.276 153.503 160.252 154.469 159.098V154.344C154.469 153.624 153.879 153.034 153.159 153.034Z" fill="#E38540"/>
<path d="M152.438 159.042C154.844 159.042 156.794 156.385 156.794 153.106C156.794 149.828 154.844 147.17 152.438 147.17C150.032 147.17 148.081 149.828 148.081 153.106C148.081 156.385 150.032 159.042 152.438 159.042Z" fill="#F09959"/>
<path d="M154.833 148.595C154.315 150.42 153.181 150.399 151.599 150.998C150.017 151.598 149.261 152.2 148.744 153.368C148.084 154.857 149.043 159.2 149.043 159.2C149.043 159.2 145.037 156.202 145.501 151.489C145.965 146.774 148.744 144.949 151.36 144.949C153.976 144.949 154.97 146.542 154.97 146.542C154.97 146.542 156.363 146.548 157.681 148.109C159.452 150.208 158.907 155.303 157.681 157.128C156.455 158.954 155.637 159.527 155.664 159.445C155.691 159.363 156.808 155.17 156.209 152.578C155.609 149.986 154.833 148.593 154.833 148.593V148.595Z" fill="#7A4E34"/>
<path d="M154.076 156.326C154.076 156.326 153.343 157.277 152.438 157.277C151.533 157.277 150.8 156.326 150.8 156.326H154.076Z" fill="white"/>
<path d="M157.625 175.532H146.623C145.918 175.532 145.344 174.956 145.344 174.253C145.344 173.55 145.92 172.974 146.623 172.974H157.625C158.329 172.974 158.904 173.55 158.904 174.253C158.904 174.956 158.328 175.532 157.625 175.532Z" fill="#263238"/>
<path d="M159.639 179.463H144.608C143.904 179.463 143.329 178.887 143.329 178.184C143.329 177.481 143.905 176.905 144.608 176.905H159.639C160.343 176.905 160.918 177.481 160.918 178.184C160.918 178.887 160.342 179.463 159.639 179.463Z" fill="#263238"/>
<path d="M170.405 193.599H133.841C133.433 193.599 133.099 193.265 133.099 192.858C133.099 192.45 133.434 192.116 133.841 192.116H170.405C170.814 192.116 171.147 192.45 171.147 192.858C171.147 193.265 170.813 193.599 170.405 193.599Z" fill="#263238"/>
<path d="M170.405 197.049H133.841C133.433 197.049 133.099 196.714 133.099 196.307C133.099 195.899 133.434 195.565 133.841 195.565H170.405C170.814 195.565 171.147 195.899 171.147 196.307C171.147 196.714 170.813 197.049 170.405 197.049Z" fill="#263238"/>
<path d="M170.405 200.499H133.841C133.433 200.499 133.099 200.165 133.099 199.758C133.099 199.35 133.434 199.016 133.841 199.016H170.405C170.814 199.016 171.147 199.35 171.147 199.758C171.147 200.165 170.813 200.499 170.405 200.499Z" fill="#263238"/>
<path d="M165.292 166.968H138.956C138.225 166.968 137.63 166.374 137.63 165.643V141.371C137.63 140.64 138.225 140.045 138.956 140.045H165.292C166.023 140.045 166.617 140.64 166.617 141.371V165.643C166.617 166.374 166.023 166.968 165.292 166.968ZM138.956 141.124C138.822 141.124 138.709 141.237 138.709 141.371V165.643C138.709 165.776 138.822 165.89 138.956 165.89H165.292C165.425 165.89 165.538 165.776 165.538 165.643V141.371C165.538 141.237 165.425 141.124 165.292 141.124H138.956Z" fill="#263238"/>
<path d="M142.756 182.8L143.518 184.345L145.223 184.593L143.989 185.795L144.281 187.493L142.756 186.691L141.231 187.493L141.522 185.795L140.289 184.593L141.993 184.345L142.756 182.8Z" fill="#263238"/>
<path d="M149.001 182.8L149.764 184.345L151.468 184.593L150.235 185.795L150.526 187.493L149.001 186.691L147.475 187.493L147.768 185.795L146.534 184.593L148.239 184.345L149.001 182.8Z" fill="#263238"/>
<path d="M155.246 182.8L156.008 184.345L157.713 184.593L156.479 185.795L156.771 187.493L155.246 186.691L153.721 187.493L154.012 185.795L152.779 184.593L154.483 184.345L155.246 182.8Z" fill="#263238"/>
<path d="M161.491 182.8L162.254 184.345L163.959 184.593L162.725 185.795L163.016 187.493L161.491 186.691L159.966 187.493L160.257 185.795L159.023 184.593L160.728 184.345L161.491 182.8Z" fill="#263238"/>
<path opacity="0.2" d="M133.429 211.608H59.4453L64.6784 135.824H136.097L133.429 211.608Z" fill="#263238"/>
<path d="M131.247 121.483H67.2168V226.432H131.247V121.483Z" fill="#263238"/>
<path d="M129.143 123.622H70.5703V222.433H129.143V123.622Z" fill="white"/>
<path d="M94.3981 144.376C94.3571 144.253 93.3317 138.368 93.2087 136.078C93.0858 133.789 96.8869 133.462 96.8869 133.462C96.8869 133.462 99.9936 131.787 102.242 132.645C104.49 133.503 106.02 134.947 107.041 136.746C108.064 138.545 106.142 144.15 106.142 144.15L94.397 144.376H94.3981Z" fill="#2E2D3D"/>
<path d="M87.3501 163.288C87.3361 163.191 87.6121 160.875 87.6229 160.781C88.1405 155.903 94.1533 154.531 100.153 154.531C107.202 154.531 111.984 155.82 112.747 160.89C112.769 161.038 113.176 163.36 113.156 163.516C100.091 163.695 87.3501 163.288 87.3501 163.288Z" fill="#D5E1E8"/>
<path d="M101.363 158.317C100.664 159.348 100.152 159.391 99.3941 158.317C98.7913 157.463 96.7781 155.515 96.7781 154.531L97.6041 144.715C97.6041 143.73 98.4096 142.925 99.3941 142.925H101.363C102.348 142.925 103.153 143.73 103.153 144.715L103.537 154.531C103.537 155.515 101.99 157.392 101.363 158.317Z" fill="#F09959"/>
<path d="M101.363 142.926H99.3941C98.4096 142.926 97.6041 143.731 97.6041 144.716L96.887 153.423C99.0975 154.127 102.082 152.696 103.402 151.121L103.152 144.716C103.152 143.731 102.347 142.926 101.362 142.926H101.363Z" fill="#E38540"/>
<path d="M93.6228 155.247L96.7791 161.081C96.7791 161.081 98.4688 159.691 98.6316 159.963C98.7955 160.236 98.3319 163.675 98.3319 163.675C98.3319 163.675 102.092 163.726 102.256 163.563C102.42 163.399 101.492 159.828 101.874 159.828C102.256 159.828 103.403 160.863 103.403 160.863L106.927 155.247L106.153 155.058L100.38 158.165L94.204 155.126L93.6228 155.247Z" fill="#BDCCD4"/>
<path d="M97.2319 157.935L99.5762 159.507L98.8494 163.682L102.01 163.505L101.221 159.709L103.164 157.935L102.25 157.074H98.1442L97.2319 157.935Z" fill="#D54A41"/>
<path d="M96.942 152.388L94.0435 155.146C94.0435 155.146 96.997 160.399 97.1609 160.399C97.3248 160.399 99.6669 157.503 99.6669 157.503L101.167 157.477L103.537 159.963L106.291 155.091L103.483 152.115C103.483 152.115 101.085 156.748 100.649 156.857C100.214 156.966 100.21 157.021 99.8578 156.748C99.5052 156.475 96.9442 152.388 96.9442 152.388H96.942Z" fill="#D5E1E8"/>
<path d="M100.378 151.133C103.665 151.133 106.329 147.503 106.329 143.025C106.329 138.547 103.665 134.917 100.378 134.917C97.0922 134.917 94.4282 138.547 94.4282 143.025C94.4282 147.503 97.0922 151.133 100.378 151.133Z" fill="#F09959"/>
<path d="M95.0377 142.9C95.5941 144.072 95.4119 145.323 94.6312 145.694C93.8504 146.065 92.7657 145.416 92.2092 144.244C91.6528 143.071 91.8351 141.821 92.6158 141.45C93.3965 141.079 94.4813 141.728 95.0377 142.9Z" fill="#F09959"/>
<path d="M105.452 142.9C104.896 144.072 105.078 145.323 105.859 145.694C106.639 146.065 107.724 145.416 108.281 144.244C108.837 143.071 108.655 141.821 107.874 141.45C107.093 141.079 106.009 141.728 105.452 142.9Z" fill="#F09959"/>
<path d="M103.018 146.353C103.018 146.353 101.836 148.267 100.379 148.267C98.9206 148.267 97.7388 146.353 97.7388 146.353H103.018Z" fill="white"/>
<path d="M96.8879 137.509C99.34 135.793 100.444 136.079 102.283 138.899C104.122 141.719 106.33 141.77 106.33 141.77L106.615 138.846C106.615 138.846 103.875 133.546 100.197 134.24C96.5191 134.934 94.4272 138.246 94.4272 138.246C94.4272 138.246 94.2482 144.452 94.7615 144.663C95.2748 144.874 95.3341 142.661 95.7018 142.211C96.0695 141.761 95.3341 139.636 95.8247 138.655C96.3153 137.673 96.8879 137.511 96.8879 137.511V137.509Z" fill="#2E2D3D"/>
<path d="M104.776 140.698C105.632 141.635 105.307 145.357 105.757 145.316C106.207 145.275 106.371 141.76 106.248 141.392C106.125 141.024 104.776 140.698 104.776 140.698Z" fill="#2E2D3D"/>
<path d="M113.615 176.108H86.2816C85.3208 176.108 84.5347 175.322 84.5347 174.361C84.5347 173.4 85.3208 172.614 86.2816 172.614H113.615C114.576 172.614 115.362 173.4 115.362 174.361C115.362 175.322 114.576 176.108 113.615 176.108Z" fill="#263238"/>
<path d="M110.214 181.477H89.6837C88.7229 181.477 87.9368 180.691 87.9368 179.73C87.9368 178.769 88.7229 177.983 89.6837 177.983H110.214C111.175 177.983 111.961 178.769 111.961 179.73C111.961 180.691 111.175 181.477 110.214 181.477Z" fill="#263238"/>
<path d="M124.919 200.784H74.9785C74.421 200.784 73.9648 200.328 73.9648 199.77C73.9648 199.213 74.421 198.757 74.9785 198.757H124.919C125.476 198.757 125.933 199.213 125.933 199.77C125.933 200.328 125.476 200.784 124.919 200.784Z" fill="#263238"/>
<path d="M124.919 205.496H74.9785C74.421 205.496 73.9648 205.04 73.9648 204.483C73.9648 203.925 74.421 203.469 74.9785 203.469H124.919C125.476 203.469 125.933 203.925 125.933 204.483C125.933 205.04 125.476 205.496 124.919 205.496Z" fill="#263238"/>
<path d="M124.919 210.21H74.9785C74.421 210.21 73.9648 209.754 73.9648 209.196C73.9648 208.639 74.421 208.183 74.9785 208.183H124.919C125.476 208.183 125.933 208.639 125.933 209.196C125.933 209.754 125.476 210.21 124.919 210.21Z" fill="#263238"/>
<path d="M117.934 164.214H81.9628C81.0732 164.214 80.3496 163.49 80.3496 162.601V129.449C80.3496 128.559 81.0732 127.835 81.9628 127.835H117.934C118.823 127.835 119.547 128.559 119.547 129.449V162.601C119.547 163.49 118.823 164.214 117.934 164.214ZM81.9628 128.914C81.6684 128.914 81.4279 129.153 81.4279 129.449V162.601C81.4279 162.895 81.6673 163.135 81.9628 163.135H117.934C118.228 163.135 118.468 162.896 118.468 162.601V129.449C118.468 129.154 118.229 128.914 117.934 128.914H81.9628Z" fill="#263238"/>
<path d="M82.8212 186.035L83.8628 188.145L86.191 188.484L84.5066 190.126L84.9045 192.446L82.8212 191.35L80.7389 192.446L81.1358 190.126L79.4514 188.484L81.7795 188.145L82.8212 186.035Z" fill="#263238"/>
<path d="M91.3505 186.035L92.3921 188.145L94.7213 188.484L93.0359 190.126L93.4338 192.446L91.3505 191.35L89.2682 192.446L89.6661 190.126L87.9807 188.484L90.3099 188.145L91.3505 186.035Z" fill="#263238"/>
<path d="M99.88 186.035L100.922 188.145L103.251 188.484L101.565 190.126L101.963 192.446L99.88 191.35L97.7978 192.446L98.1957 190.126L96.5103 188.484L98.8394 188.145L99.88 186.035Z" fill="#263238"/>
<path d="M108.411 186.035L109.451 188.145L111.78 188.484L110.095 190.126L110.493 192.446L108.411 191.35L106.327 192.446L106.725 190.126L105.04 188.484L107.369 188.145L108.411 186.035Z" fill="#263238"/>
<path d="M117.076 186.035L118.117 188.145L120.446 188.484L118.761 190.126L119.158 192.446L117.076 191.35L114.993 192.446L115.391 190.126L113.705 188.484L116.035 188.145L117.076 186.035Z" fill="#263238"/>
<path d="M234.083 219.931H151.918C151.424 219.931 151.024 220.331 151.024 220.825V222.165C151.024 222.659 151.424 223.059 151.918 223.059H234.083C234.577 223.059 234.977 222.659 234.977 222.165V220.825C234.977 220.331 234.577 219.931 234.083 219.931Z" fill="#2E5B9A"/>
<path d="M255.239 178.005C256.352 181.93 253.633 185.974 250.638 186.824C247.642 187.674 245.505 185.007 244.392 181.082C243.279 177.157 244.804 173.287 247.799 172.437C250.795 171.587 254.126 174.081 255.239 178.006V178.005Z" fill="#F09959"/>
<path d="M238.445 254.059C238.445 254.059 246.122 265.982 247.158 266.5C248.195 267.019 250.786 267.148 249.815 269.093C248.843 271.037 248.454 278.683 247.547 279.071C246.64 279.461 238.864 280.368 240.03 279.071C241.197 277.775 241.914 278.423 242.503 276.091C243.091 273.759 243.918 269.351 242.816 268.445C241.715 267.538 234.976 259.373 234.976 259.373L238.445 254.06V254.059Z" fill="#F09959"/>
<path d="M199.808 259.179C199.808 259.179 190.477 274.558 188.749 275.941C187.021 277.324 181.318 279.397 185.984 279.743C190.65 280.089 192.896 278.188 195.834 277.324C198.771 276.46 202.401 275.941 201.018 273.695C199.636 271.449 200.21 266.545 203.19 263.434C206.171 260.323 199.808 259.18 199.808 259.18V259.179Z" fill="#F09959"/>
<path d="M247.428 223.515C247.428 223.515 224.329 222.912 215.17 230.428C209.813 238.549 196.854 262.513 195.847 265.154C196.538 265.845 200.426 267.093 202.154 266.919C207.251 260.841 213.99 255.586 216.669 250.818C219.971 244.942 220.989 242.004 226.346 241.486C231.703 240.967 243.8 239.24 247.428 239.24C251.057 239.24 247.428 223.514 247.428 223.514V223.515Z" fill="#263238"/>
<path d="M267.573 279.785H266.362L257.679 243.557H260.342L267.573 279.785Z" fill="#2E5B9A"/>
<path d="M231.3 279.784H232.511L242.475 242.277H239.811L231.3 279.784Z" fill="#2E5B9A"/>
<path d="M260.588 221.933L247.158 224.252C247.158 224.252 229.31 224.416 221.153 225.935C213.731 227.317 212.637 235.751 221.153 247.362C225.99 253.958 230.08 259.221 238.445 265.154C240.573 263.591 241.387 263 241.974 259.242C241.369 258.412 239.801 253.218 239.315 252.201C234.689 242.53 228.514 239.013 228.428 238.062C229.466 236.377 255.891 246.844 261.146 240.686C266.162 234.808 260.588 221.932 260.588 221.932V221.933Z" fill="#263238"/>
<path d="M261.146 191.529C257.609 191.033 254.006 191.705 250.637 194.144C247.694 197.145 244.362 202.095 244.566 210.258C244.825 220.626 242.962 221.291 244.906 224.142C253.014 227.49 266.881 241.875 263.615 226.453C261.25 215.286 268.801 206.962 262.71 194.575C262.214 193.567 261.595 192.589 261.147 191.528L261.146 191.529Z" fill="#0E4366"/>
<path d="M244.564 214.159C244.407 219.563 243.644 221.156 244.227 222.85C247.532 223.187 253.578 224.51 255.089 226.625C256.817 229.044 258.545 229.39 257.738 227.604C256.932 225.818 254.801 223.284 258.084 214.587C261.368 205.889 262.923 200.013 259.698 193.966L244.564 214.159Z" fill="#263238"/>
<path d="M261.146 191.529C258.968 186.372 258.433 180.58 258.433 180.58L252.731 182.264C252.731 182.264 255.971 189.521 252.86 192.113C252.199 192.664 251.432 193.333 250.636 194.144C254.005 191.705 257.608 191.032 261.145 191.529H261.146Z" fill="#F09959"/>
<path d="M258.605 181.952C258.268 181.651 257.845 181.276 257.401 180.885L252.75 182.259C252.747 182.267 252.743 182.276 252.74 182.283C252.852 182.54 254.037 185.305 254.193 187.964C255.578 187.123 257.097 185.752 258.832 183.357C258.738 182.826 258.663 182.352 258.605 181.952Z" fill="#E38540"/>
<path d="M257.138 193.151C251.265 195.205 251.916 201.392 246.511 210.517C243.714 215.239 241.115 215.169 241.115 215.169C241.115 215.169 234.554 215.222 226.619 214.251C221.65 213.644 221.334 215.123 224.79 216.359C231.76 218.851 238.993 221.532 244.825 220.884C250.657 220.236 260.631 205.356 261.146 201.483C261.857 196.126 260.094 192.116 257.137 193.151H257.138Z" fill="#F09959"/>
<path d="M254.113 245.067C253.747 245.067 253.374 245.063 252.99 245.053C248.204 244.934 244.946 244.272 242.328 243.741C239.271 243.119 237.588 242.778 235.627 243.714C234.875 244.073 233.974 243.755 233.614 243.002C233.255 242.249 233.573 241.349 234.326 240.989C237.197 239.616 239.602 240.104 242.929 240.782C245.43 241.291 248.544 241.922 253.065 242.035C258.124 242.161 261.209 241.41 262.773 239.676C264.166 238.131 264.574 235.536 264.056 231.508C263.879 230.13 263.701 228.983 263.545 227.971C263.104 225.117 262.812 223.232 263.173 220.317C263.508 217.611 264.404 214.005 266.48 207.014C266.717 206.215 267.557 205.76 268.358 205.996C269.157 206.233 269.613 207.073 269.376 207.873C265.508 220.901 265.704 222.17 266.529 227.51C266.688 228.539 266.868 229.706 267.051 231.123C267.689 236.091 267.043 239.451 265.016 241.699C262.928 244.013 259.54 245.068 254.114 245.068L254.113 245.067Z" fill="#2E5B9A"/>
<path d="M200.444 272.141C194.252 275.169 190.92 276.904 188.935 276.739C188.466 276.7 188.077 276.652 187.752 276.601C185.543 277.906 182.019 279.448 185.984 279.742C190.65 280.087 192.896 278.187 195.834 277.322C198.771 276.459 202.401 275.94 201.018 273.694C200.753 273.264 200.561 272.735 200.444 272.141Z" fill="#D54A41"/>
<path d="M247.834 266.753C247.683 271.655 247.009 276.513 244.01 277.43C243.215 277.674 242.491 277.709 241.85 277.624C241.379 278.207 240.803 278.213 240.031 279.071C238.864 280.367 246.64 279.46 247.548 279.071C248.455 278.681 248.844 271.036 249.816 269.092C250.615 267.495 249.008 267.123 247.834 266.753Z" fill="#D54A41"/>
<path d="M223.984 220.359H204.314C203.726 220.359 203.192 220.018 202.944 219.486L194.995 202.378C194.643 201.622 194.972 200.724 195.728 200.372C196.485 200.021 197.382 200.35 197.734 201.106L205.277 217.34H223.984C224.817 217.34 225.493 218.016 225.493 218.849C225.493 219.683 224.817 220.359 223.984 220.359Z" fill="#263238"/>
<path d="M228.1 214.422C224.125 214.364 220.184 211.995 218.224 212.34C216.266 212.687 209.872 217.122 210.678 217.294C211.485 217.467 216.554 214.84 216.726 214.8C216.899 214.76 217.993 216.619 220.701 217.303C223.409 217.986 220.721 215.274 229.112 217.809C234.568 219.456 228.098 214.422 228.098 214.422H228.1Z" fill="#F09959"/>
<path d="M260.561 186.823L261.146 191.529C261.146 191.529 256.002 191.835 253.443 193.275C250.884 194.714 247.107 198.876 247.107 198.876L250.193 193.563L250.637 190.164L260.561 186.823Z" fill="#F2E5DE"/>
<path d="M258.372 192.583C254.552 191.867 252.785 195.291 250.309 200.878C247.832 206.466 243.604 213.252 242.762 214.126C241.921 215.001 228.592 214.126 228.592 214.126C228.592 214.126 228.189 217.986 228.592 218.446C228.995 218.906 231.3 218.849 231.3 218.849C231.3 218.849 232.222 219.585 233.086 220.168C233.949 220.75 241.265 221.845 244.664 221.672C248.062 221.5 251.172 221.212 251.633 220.693C252.093 220.175 261.368 205.89 261.944 200.763C262.52 195.636 260.322 192.949 258.372 192.583Z" fill="#F2E5DE"/>
<path d="M247.107 169.083C239.882 169.429 241.016 180.297 241.016 180.297C241.016 180.297 242.892 180.876 246.823 180.228C246.521 179.061 246.651 176.081 246.651 176.081C246.651 176.081 247.108 178.501 247.688 179.969C248.52 180.35 249.46 180.013 251.058 179.627C251.879 183.08 254.198 184.539 255.786 185.039C257.541 185.591 259.399 186.249 261.472 185.211C263.546 184.174 262.406 173.576 261.304 171.444C259.651 168.245 256.905 165.382 252.153 166.894C249.769 167.652 247.108 169.083 247.108 169.083H247.107Z" fill="#263238"/>
<path d="M259.672 181.99L262.625 186.305C262.625 186.305 259.351 194.484 268.873 198.19C276.33 201.092 275.451 206.206 272.082 211.349C268.712 216.491 274.099 220.982 274.099 220.982C274.099 220.982 274.92 215.286 282.165 214.211C292.043 212.744 294.84 199.482 287.461 192.85C281.356 187.362 279.498 191.907 275.365 186.982C271.231 182.057 263.43 185.384 263.43 185.384L260.57 181.214L259.672 181.991V181.99Z" fill="#263238"/>
<path d="M290.86 206.211C290.817 206.211 290.774 206.2 290.734 206.178C290.607 206.108 290.56 205.948 290.629 205.821C293.114 201.282 291.087 195.782 290.068 194.293C289.96 194.135 289.857 193.975 289.748 193.805C288.747 192.242 287.5 190.297 280.849 189.099C279.247 188.811 277.95 187.859 276.577 186.85C273.741 184.768 270.525 182.408 263.541 185.623C263.408 185.684 263.253 185.626 263.193 185.495C263.132 185.363 263.189 185.207 263.321 185.147C270.587 181.803 273.935 184.259 276.887 186.428C278.21 187.398 279.459 188.316 280.942 188.583C287.819 189.821 289.134 191.874 290.191 193.523C290.297 193.689 290.398 193.845 290.501 193.997C291.569 195.558 293.693 201.32 291.091 206.076C291.043 206.163 290.953 206.213 290.86 206.213V206.211Z" fill="#263238"/>
<path d="M258.094 186.411C257.622 186.411 257.111 186.37 256.56 186.287C254.032 185.909 250.641 184.472 250.375 176.405C250.371 176.261 250.484 176.139 250.629 176.135C250.777 176.132 250.895 176.244 250.9 176.388C251.01 179.713 251.668 182.173 252.86 183.7C253.765 184.861 254.965 185.517 256.637 185.768C258.976 186.118 260.527 185.686 261.245 184.483C261.319 184.359 261.481 184.318 261.605 184.393C261.729 184.467 261.77 184.629 261.696 184.753C261.037 185.855 259.828 186.41 258.093 186.41L258.094 186.411Z" fill="#263238"/>
<path d="M159.831 279.784H161.772L169.323 222.062H165.053L159.831 279.784Z" fill="#2E5B9A"/>
<path d="M225.7 279.784H223.759L216.208 222.062H220.479L225.7 279.784Z" fill="#2E5B9A"/>
<path d="M301.827 231.061C305.185 234.128 303.725 237.193 301.242 242.888C298.76 248.583 298.322 269.61 298.322 269.61L300.367 269.318C300.367 269.318 300.074 247.707 302.849 241.866C305.624 236.025 306.791 233.104 309.274 235.003C311.756 236.901 301.827 231.061 301.827 231.061Z" fill="#74B570"/>
<path d="M299.982 227.09C300.389 225.273 302.812 223.307 306.05 221.638C305.568 224.319 304.024 228.701 305.622 229.6C307.778 230.812 305.833 224.693 306.664 221.33C309.706 219.845 313.364 218.631 316.733 218.027C316.729 218.04 316.725 218.052 316.719 218.064C314.822 222.883 312.339 224.781 313.362 225.511C314.13 226.06 316.635 220.493 319.943 217.64C322.425 217.507 324.525 217.844 325.768 218.828C327.688 220.349 328.977 221.698 327.045 226.327C325.942 227.115 324.512 227.68 322.852 227.846C318.472 228.284 316.427 228.431 319.493 229.891C320.995 230.606 323.512 229.85 325.552 229.39C324.89 230.61 324.076 231.991 323.087 233.564C322.459 234.561 321.769 235.427 321.035 236.175C319.623 236.446 318.392 236.449 317.741 236.17C315.696 235.294 310.439 232.52 309.126 233.688C307.839 234.831 318.861 235.555 318.098 238.46C312.756 241.538 306.642 240.073 305.562 237.247C304.111 233.451 298.752 232.559 299.981 227.088L299.982 227.09Z" fill="#9CD499"/>
<path d="M311.026 247.853C305.185 243.473 299.198 247.561 296.132 252.234C293.065 256.906 295.256 267.42 295.256 267.42C295.256 267.42 296.424 267.42 296.424 266.982C296.424 266.544 293.212 254.57 300.804 249.167C305.554 245.787 308.981 247.415 309.419 249.021C309.857 250.628 307.521 253.548 307.521 253.548L311.026 247.853Z" fill="#74B570"/>
<path d="M297.592 238.849C303.433 238.849 305.331 247.902 303.725 253.159C302.118 258.416 299.928 268.2 299.928 268.2L298.468 266.74C298.468 266.74 304.017 253.014 302.702 246.881C301.388 240.749 298.176 239.726 297.591 239.726C297.007 239.726 297.591 238.851 297.591 238.851L297.592 238.849Z" fill="#9CD499"/>
<path d="M302.491 253.199C302.902 252.655 303.41 252.205 304.029 251.907C303.948 252.342 303.846 252.761 303.726 253.158C302.993 255.553 302.14 258.887 301.429 261.808C301.364 261.434 301.265 260.858 301.111 259.969C301.074 259.759 301.046 259.531 301.026 259.289C301.597 257.344 302.138 255.224 302.491 253.199Z" fill="#74B570"/>
<path d="M304.088 253.243C315.185 248.571 309.338 242.159 319.122 246.393C319.811 246.691 320.651 247.443 321.492 248.48C320.621 248.727 319.565 248.905 318.392 248.729C315.472 248.292 316.494 250.627 321.312 251.212C322.22 251.322 322.958 251.474 323.57 251.688C325.866 256.098 326.9 261.899 322.042 263.915C321.085 264.313 319.902 264.54 318.585 264.625C317.086 263.433 318.951 256.539 316.64 257.491C314.42 258.404 317.335 263.401 316.936 264.661C314.746 264.621 312.321 264.263 310.004 263.689C309.087 263.175 308.386 262.486 308.171 261.58C307.44 258.513 312.26 256.615 312.405 253.987C312.54 251.571 310.639 259.303 305.604 260.441C301.051 258.315 298.9 255.429 304.088 253.244V253.243Z" fill="#9CD499"/>
<path d="M296.181 244.981C297.348 242.499 294.283 241.914 294.428 243.813C294.558 245.495 294.572 249.584 292.846 250.697C289.871 250.375 285.823 249.176 282.763 247.349C282.724 247.102 282.762 246.847 282.891 246.588C284.206 243.959 292.675 241.769 290.046 240.893C287.953 240.195 284.285 244.313 281.329 246.388C279.554 245.041 278.365 243.436 278.365 241.643C278.365 239.217 281.313 236.472 285.123 235.159C286.839 235.332 288.433 236.27 290.922 237.681C294.599 239.764 293.748 236.395 290.271 234.396C293.272 234.551 296.265 235.833 298.472 238.897C298.472 238.897 298.263 240.206 299.648 242.232C303.429 247.759 299.066 250.984 293.85 250.775C294.146 249.318 295.371 246.698 296.177 244.982L296.181 244.981Z" fill="#9CD499"/>
<path d="M310.674 247.606C313.53 249.812 316.702 252.392 320.596 254.145C324.49 255.897 323.711 261.608 323.711 261.608C323.711 261.608 324.296 256.676 321.05 254.988C317.805 253.3 315.663 251.288 313.197 250.899C310.73 250.51 309.367 250.12 309.367 250.12C309.367 250.12 310.146 248.562 309.692 247.979C309.238 247.395 310.673 247.606 310.673 247.606H310.674Z" fill="#74B570"/>
<path d="M324.75 221.693C314.301 224.484 306.643 231.169 305.215 232.791C303.787 234.414 303.787 234.868 303.787 234.868L304.89 236.945L305.409 236.685C305.409 236.685 304.566 234.933 306.772 232.661C310.577 228.743 315.209 225.652 318.389 224.289C321.569 222.926 324.749 221.693 324.749 221.693H324.75Z" fill="#74B570"/>
<path d="M299.899 279.532H295.907C293.07 279.532 290.766 277.228 290.766 274.391V265.219H305.038V274.391C305.038 277.228 302.735 279.532 299.898 279.532H299.899Z" fill="#0E4366"/>
<path d="M305.038 266.859H290.766V267.864H305.038V266.859Z" fill="white"/>
<path d="M305.038 268.691H290.766V269.282H305.038V268.691Z" fill="white"/>
<path d="M35.5604 267.044H38.9647C39.6841 267.044 40.2673 266.461 40.2673 265.741V262.938C40.2673 262.218 39.6841 261.635 38.9647 261.635H35.5604C34.841 261.635 34.2578 262.218 34.2578 262.938V265.741C34.2578 266.461 34.841 267.044 35.5604 267.044Z" fill="#0E4366"/>
<path d="M24.6337 267.044H28.038C28.7574 267.044 29.3406 266.461 29.3406 265.741V262.938C29.3406 262.218 28.7574 261.635 28.038 261.635H24.6337C23.9143 261.635 23.3311 262.218 23.3311 262.938V265.741C23.3311 266.461 23.9143 267.044 24.6337 267.044Z" fill="#0E4366"/>
<path d="M13.706 267.044H17.1102C17.8296 267.044 18.4128 266.461 18.4128 265.741V262.938C18.4128 262.218 17.8296 261.635 17.1102 261.635H13.706C12.9865 261.635 12.4033 262.218 12.4033 262.938V265.741C12.4033 266.461 12.9865 267.044 13.706 267.044Z" fill="#0E4366"/>
<path d="M324.662 162.846V166.251C324.662 166.969 324.079 167.554 323.36 167.554H320.555C319.836 167.554 319.253 166.97 319.253 166.251V162.846C319.253 162.127 319.836 161.543 320.555 161.543H323.36C324.078 161.543 324.661 162.126 324.661 162.845L324.662 162.846Z" fill="#0E4366"/>
<path d="M324.662 173.772V177.178C324.662 177.896 324.079 178.479 323.361 178.479H320.556C319.837 178.479 319.254 177.896 319.254 177.177V173.771C319.254 173.053 319.837 172.469 320.556 172.469H323.361C324.079 172.469 324.662 173.052 324.662 173.77V173.772Z" fill="#0E4366"/>
<path d="M324.662 184.699V188.104C324.662 188.823 324.079 189.406 323.361 189.406H320.556C319.837 189.406 319.254 188.823 319.254 188.103V184.698C319.254 183.98 319.837 183.396 320.555 183.396H323.36C324.078 183.396 324.661 183.98 324.661 184.698L324.662 184.699Z" fill="#0E4366"/>
</g>
<defs>
<clipPath id="clip0_216_7014">
<rect width="328" height="328" fill="white"/>
</clipPath>
</defs>
</svg>
